<svg xmlns="http://www.w3.org/2000/svg" xml:space="preserve" fill-rule="evenodd" stroke-miterlimit="10" clip-rule="evenodd" viewBox="0 0 1136 266">
  <ellipse cx="-18.716" fill="none" stroke="#1d1d1b" stroke-width="2.61" rx="18.715" ry="18.716" transform="matrix(0 -4.16667 -4.16667 0 132.54353 54.5604)"/>
  <path fill="#1d1d1b" fill-rule="nonzero" d="M348.87153 91.81990009v1.77916809c-11.12917557.94583409-14.56251165 10.29584157-21.90001752 27.46252197L304.35899439 175.0408h-1.65833466l-26.7500214-64.0417179c-3.55416951-8.64167358-6.27500502-16.21667964-16.81251345-17.40001392v-1.77916809h37.52503002v1.77916809c-16.68751335 1.65416799-11.24167566 11.1250089-8.1666732 18.5833482l18.94168182 45.69170322 13.96667784-33.5000268c10.18334148-24.26668608 12.07500966-28.17085587-5.9166714-30.77502462v-1.77916809H348.87153Zm17.281 4.61717737c0 3.31666932-2.72500218 6.03750483-6.03750483 6.03750483-3.31250265 0-6.03750483-2.72083551-6.03750483-6.03750483 0-3.31250265 2.72500218-6.03750483 6.03750483-6.03750483 3.31250265 0 6.03750483 2.72500218 6.03750483 6.03750483m-19.29584877 75.87922737v-1.77500142c8.76250701-1.30000104 9.11667396-2.72083551 9.23334072-11.95417623v-22.61251809c0-4.97083731.12083343-6.50833854-7.22083911-10.77084195v-1.18333428l15.03334536-5.2083375 1.30416771.47083371v39.30419811c0 9.7083411.47083371 10.65417519 9.23334072 11.95417623v1.77500142h-27.5833554ZM385.37553 106.61742064l-1.06666752-1.65416799c3.07916913-2.13333504 9.94584129-6.51250521 13.61667756-6.51250521 5.20417083 0 13.49167746 6.39167178 18.82084839 6.39167178 3.55000284 0 7.69583949-2.9583357 10.17917481-5.44583769l1.30416771 1.30416771c-3.78750303 4.14166998-10.30000824 9.70417443-16.10001288 9.70417443-5.68333788 0-13.85001108-6.50833854-19.17918201-6.50833854-2.72083551 0-5.32500426 1.42083447-7.57500606 2.72083551m1.06666752 29.35835682c0-4.97083731.11666676-6.51250521-5.80000464-10.77500862v-1.17916761l14.0833446-5.21250417 1.30416771.47500038-.95000076 8.64167358c6.7500054-4.97083731 13.25834394-9.11667396 20.83751667-9.11667396 14.20417803 0 14.9166786 11.72084271 14.9166786 18.70418163v21.07085019c0 9.7083411.47083371 10.65417519 9.23334072 11.9583429v1.77500142h-27.5833554v-1.77500142c8.75834034-1.30416771 9.11250729-2.72083551 9.23334072-11.9583429v-13.61251089c0-8.28750663.35416695-20.00418267-14.08751127-20.00418267-4.85417055 0-8.1666732 1.53750123-12.07500966 5.09167074v28.52502282c0 9.7083411.47500038 10.65417519 9.23334072 11.9583429v1.77500142H377.2088568v-1.77500142c8.75834034-1.30416771 9.11667396-2.72083551 9.23334072-11.9583429v-22.60835142Zm83.88433248-2.95799848c-1.06666752-5.44583769-4.38333684-11.60417595-10.65417519-11.60417595-6.74583873 0-10.77500862 6.63333864-12.07500966 12.55001004l22.72918485-.94583409Zm-23.55835218 9.11667396c-.94583409 12.30834318 7.4583393 23.7916857 20.83335 23.7916857 6.15833826 0 10.416675-2.72500218 13.97084451-7.4583393l1.77500142 1.30416771c-4.5000036 7.69167282-12.55001004 13.72917765-21.77918409 13.72917765-14.68334508 0-24.86251989-12.07084299-24.86251989-26.27918769 0-15.27084555 10.65417519-28.41252273 26.63752131-28.41252273 10.65417519 0 17.75418087 6.7500054 18.22918125 17.40418059H447.2431782l-.47500038 5.92083807Zm81.78435218-2.96063968c0-13.73334432-10.416675-16.69168002-15.98334612-16.69168002-11.00834214 0-15.74167926 11.24584233-15.74167926 20.71668324 0 17.04584697 10.17917481 24.38335284 18.94168182 24.38335284 4.73333712 0 10.30000824-4.14166998 12.78334356-8.1666732v-20.24168286Zm0 35.27502822v-11.24584233c-5.32917093 5.2083375-11.60000928 10.30000824-19.52918229 10.30000824-12.78751023 0-22.25835114-12.55001004-22.25835114-24.6250197 0-17.99168106 14.56251165-30.06669072 31.96252557-30.06669072 3.31250265 0 6.62917197.35416695 9.82500786 1.18333428v-15.50834574c0-4.97083731.12083343-6.50833854-5.80000464-10.77084195v-1.18333428l13.61251089-5.2083375 1.30416771.47083371v69.37088883c0 10.89167538 0 12.31250985 9.94167462 10.89167538l.47083371 2.01250161-19.52918229 4.37917017Zm47.721-53.0344144c-12.78334356 0-17.99584773 13.25834394-17.99584773 24.15001932 0 11.00834214 6.15833826 25.3333536 18.94168182 25.3333536 11.9583429 0 17.28334716-13.61251089 17.28334716-23.7916857 0-10.89584205-5.32500426-25.69168722-18.22918125-25.69168722m.11666676 52.08754167c-16.21667964 0-29.12085663-10.30000824-29.12085663-27.10835502 0-16.33751307 13.37917737-27.5833554 29.24169006-27.5833554 16.10001288 0 29.00418987 10.416675 29.00418987 27.10835502 0 16.10001288-13.5000108 27.5833554-29.1250233 27.5833554M670.71953 104.49492273l-11.1250089 30.77502462h23.43751875L670.71953 104.49492273Zm-13.13751051 36.22086231c-2.01666828 5.92083807-7.22083911 18.23334792-7.22083911 23.91251913 0 7.22083911 8.1666732 7.22083911 13.49167746 8.05000644v1.77500142h-32.43335928v-1.77500142c10.53750843-2.84166894 11.60417595-5.2083375 15.26667888-14.44167822l13.37917737-34.92086127 7.10417235-19.29584877c1.06666752-3.07916913 2.60000208-5.9166714 1.30000104-8.1666732 3.20000256-1.30416771 6.15417159-3.43333608 8.64584025-6.39583845l26.03752083 69.37088883c3.19583589 8.64167358 5.2083375 12.07500966 14.68334508 13.85001108v1.77500142h-34.80419451v-1.77500142c4.14166998-.94583409 9.11250729-2.24583513 9.11250729-7.57500606 0-4.97083731-4.5000036-16.10001288-7.57500606-24.38751951h-26.98752159ZM737.36853 98.57507746c0 3.31666932-2.72500218 6.03750483-6.03333816 6.03750483-3.31666932 0-6.0416715-2.72083551-6.0416715-6.03750483 0-3.31250265 2.72500218-6.03750483 6.0416715-6.03750483 3.30833598 0 6.03333816 2.72500218 6.03333816 6.03750483m-19.29584877 75.87922737v-1.77500142c8.76250701-1.30000104 9.11667396-2.72083551 9.23334072-11.95417623v-22.61251809c0-4.97083731.11666676-6.50833854-7.22083911-10.77084195v-1.18333428l15.03751203-5.2083375 1.29583437.47083371v39.30419811c0 9.7083411.47916705 10.65417519 9.23750739 11.95417623v1.77500142h-27.5833554Z"/>
  <path fill="#1d1d1b" fill-rule="nonzero" d="M753.58653 138.11378466c0-4.97083731.11666676-6.51250521-5.80000464-10.77500862v-1.17916761l14.08751127-5.21250417 1.29583437.47500038-.94166742 8.64167358c6.74167206-4.97083731 13.25417727-9.11667396 20.82918333-9.11667396 14.20417803 0 14.92084527 11.72084271 14.92084527 18.70418163v21.07085019c0 9.7083411.47083371 10.65417519 9.22917405 11.9583429v1.77500142H779.6282175v-1.77500142c8.76250701-1.30416771 9.11667396-2.72500218 9.23334072-11.9583429v-13.61251089c0-8.28750663.35416695-20.00418267-14.08751127-20.00418267-4.85417055 0-8.17083987 1.53750123-12.07500966 5.09167074v28.52502282c0 9.7083411.47083371 10.65417519 9.23334072 11.9583429v1.77500142h-27.57918873v-1.77500142c8.75834034-1.30416771 9.11250729-2.72500218 9.23334072-11.9583429v-22.60835142Zm157.116-46.29371686v1.77916809c-13.49584413 1.4166678-22.49168466 12.90001032-31.25419167 22.01668428l-11.1250089 11.83750947 24.03335256 26.51668788c7.22083911 7.93333968 15.74584593 15.03334536 26.27502102 17.99168106l-.58750047 1.77500142c-20.59584981-1.65416799-23.91251913-2.2500018-35.03752803-14.44167822l-24.15001932-26.27918769 19.05834858-20.71668324c12.42917661-13.96667784 10.05834138-17.87084763 2.12916837-18.70001496V91.8200678H910.70253ZM857.19832053 152.90345c.35416695 12.19167642.47083371 15.74584593 15.74584593 17.63751411v1.77500142h-40.84169934v-1.77500142c14.20417803-1.89166818 14.32501146-5.44583769 14.67917841-17.63751411v-41.67086667c-.35416695-12.19167642-.47500038-15.74167926-14.67917841-17.63334744V91.8200678h37.64169678v1.77916809c-12.07500966 1.89166818-12.19167642 5.44167102-12.54584337 17.63334744V152.90345Zm77.74620947.59369508c-.47500038 1.53750123-.833334 3.07916913-.833334 4.73333712 0 4.97083731 2.84583561 9.35000748 8.28750663 9.35000748 3.20000256 0 6.39583845-2.12916837 8.52500682-4.37917017v-17.8750143L934.94453 153.49714508Zm15.97917945-10.53334176c.94583409-12.90417699-2.36666856-18.23334792-11.72084271-18.23334792-8.1666732 0-7.33750587 3.90416979-7.33750587 10.416675l-5.9166714.35416695c-.95000076 0-2.72500218.12083343-2.72500218-1.18333428 0-3.19583589 13.02501042-15.50834574 22.60835142-15.50834574 10.89167538 0 14.2083447 8.28750663 14.2083447 17.75834754v16.80834678c0 10.416675-.7083339 12.90417699 10.29584157 15.15417879v1.77500142c-4.5000036 1.30416771-8.40417339 2.60416875-11.95417623 2.60416875-4.97500398 0-6.86667216-2.84166894-7.4583393-7.4583393-3.78750303 4.26250341-8.99584053 8.05000644-15.03751203 8.05000644-7.57500606 0-11.8333428-6.39167178-11.8333428-13.49584413 0-1.77500142.23750019-3.42916941.7083339-5.2083375l26.16252093-11.8333428ZM990.17953 158.5854875c0 9.7083411.47500038 10.65417519 11.84167614 11.9583429v1.77500142h-29.59585701v-1.77500142c8.17083987-1.30416771 8.52500682-2.72500218 8.64167358-11.9583429v-22.60835142c0-4.97500398.11666676-6.51250521-5.80000464-10.77500862v-1.17916761l14.08751127-5.21250417 1.30000104.47500038-.47500038 13.96667784h.23750019c2.60833542-6.27083835 9.23334072-14.44167822 16.69584669-14.44167822 3.30833598 0 6.03333816 2.13333504 6.03333816 5.44583769 0 3.19583589-3.43333608 6.15833826-6.15417159 7.4583393-2.01666828-1.5416679-4.97083731-4.14166998-7.57917273-3.90416979-10.05834138.94583409-9.23334072 17.0416803-9.23334072 18.82084839v11.95417623Z"/>
  <path fill="#1d1d1b" fill-rule="nonzero" d="M1030.26953 96.43707746c0 3.31666932-2.72500218 6.03750483-6.03333816 6.03750483-3.31666932 0-6.0416715-2.72083551-6.0416715-6.03750483 0-3.31250265 2.72500218-6.03750483 6.0416715-6.03750483 3.30833598 0 6.03333816 2.72500218 6.03333816 6.03750483m-19.29584877 75.87922737v-1.77500142c8.76250701-1.30000104 9.11667396-2.72083551 9.23334072-11.95417623v-22.61251809c0-4.97083731.11666676-6.50833854-7.22083911-10.77084195v-1.18333428l15.03751203-5.2083375 1.29583437.47083371v39.30419811c0 9.7083411.47916705 10.65417519 9.23750739 11.95417623v1.77500142h-27.5833554ZM1058.66953 158.5854875c0 9.7083411.47500038 10.65417519 8.28750663 11.9583429v1.77500142h-26.0416875v-1.77500142c8.17083987-1.30416771 8.52500682-2.72500218 8.64167358-11.9583429v-22.60835142c0-4.97500398.11666676-6.51250521-5.80000464-10.77500862v-1.17916761l14.08751127-5.21250417 1.30000104.47500038-.94583409 9.11667396c5.44583769-4.73750379 12.07500966-9.59167434 19.65001572-9.59167434 6.15417159 0 12.31250985 3.55416951 14.44167822 9.59167434 5.56250445-4.73750379 11.9583429-9.59167434 19.65001572-9.59167434 17.52084735 0 15.39167898 17.8750143 15.39167898 24.26668608v15.50834574c0 9.7083411.47083371 10.65417519 8.28750663 11.9583429v1.77500142h-26.04585417v-1.77500142c8.1666732-1.30416771 8.52500682-2.72500218 8.64167358-11.9583429v-12.55001004c0-4.49583693 1.89583485-21.06668352-13.37917737-21.06668352-5.08750407 0-8.40417339 2.24583513-11.83750947 5.80000464v27.81668892c0 9.7083411.47916705 10.65417519 8.28750663 11.9583429v1.77500142h-26.03752083v-1.77500142c8.16250653-1.30416771 8.51667348-2.72500218 8.63750691-11.9583429v-12.55001004c0-6.39167178 1.42083447-21.06668352-13.25834394-21.06668352-5.09167074 0-8.64167358 2.48333532-11.9583429 5.9166714v27.70002216Z"/>
  <path fill="#1d1d1b" d="M112.25353 89.41589749c-.05833338.06666672-.17083347.05416671-.2083335.15833346l-1.03750083.43333368c-4.22917005 1.32500106-4.22083671 3.80000304-3.75416967 8.22917325.52500042 4.98750399 6.48750519 2.57916873 9.55000764 2.06666832 2.74583553-.46250037 7.69583949 1.84166814 10.27500822 3.1250025 3.82083639 1.90000152 2.93333568 1.250001 2.93750235 11.00834214.00416667 6.26667168 1.09583421 9.166674-3.30833598 10.39584165-6.65833866 1.85833482-4.71667044 1.29583437-11.98334292 1.65833466-7.2916725.36666696-9.10000728 1.80833478-10.36667496-1.96666824-.82083399-2.43750195-.1250001-3.23333592-1.36666776-5.42917101-.42083367-.74583393-.81666732-1.10000088-1.58750127-1.82916813-.30000024-.28333356-.69166722-.57916713-.88333404-.71666724l-1.23750099-1.19583429c-4.10000328.09583341-7.6666728-3.99583653-5.7916713 4.81667052.39583365 1.84583481.45000036.73333392.70000056 2.38750191.19166682 1.27916769-.00833334 1.73333472.32916693 3.0000024.62916717 2.36666856-.59583381 8.46667344-.20000016 12.23334312.17916681 1.69583469 2.31666852 7.73333952 3.02500242 9.97500798.32083359 1.00416747 3.70000296 6.25417167 4.52083695 6.60417195 1.14583425.48750039.32916693.36666696.96250077-.09166674.97916745-.96666744-.14583345-.3750003-.21250017-3.65416959-.11250009-5.59167114-3.97916985-5.14583745 1.47500118-10.63334184 1.83750147-1.85000148 3.30833598-3.0416691 5.92917141-3.82500306 1.95000156-.58750047 7.02083895-.65416719 8.8750071.18750015 1.23333432.55833378 4.26250341 3.0416691 5.91250473 3.84166974 1.30833438.63750051 2.2500018.32500026 2.82083559 1.91250153l1.48333452 8.46667344c.22500018 1.35416775.22083351.45000036.53750043 1.77916809.26666688 1.13750091.22500018 1.17916761.52500042 2.17500174l1.45000116 5.33750427c.38750031 1.19583429.2916669 1.88333484.31250025 3.15416919-3.21250257-.02083335-6.58750527-.21666684-9.17084067.42916701-2.64583545.66250053-6.26250501-.03750003-7.12083903 2.55416871-1.42083447 4.30000344.7916673 6.71667204 3.84166974 7.85417295.5833338.22083351 1.22916765.45416703 1.77083475.55000044 6.85417215 1.2083343 6.10417155.84166734 14.11251129.833334 6.0833382-.00416667 4.26250341.61666716 9.13334064.66250053 3.32500266.03750003 17.52918069.86250069 19.35834882-.25833354-.0416667-3.31250265-8.67500694-5.92917141-12.78334356-7.88750631-1.05833418-.50833374-1.11250089-.68750055-2.083335-1.26250101-.99583413-.59166714-.20000016-.07500006-1.16250093-.53333376l-2.5416687-1.93333488c-1.27500102-1.24166766-2.59166874-2.78750223-3.43333608-4.40000352-1.63750131-3.13750251-.92083407-2.4166686-1.53750123-3.87083643-.82916733-1.93333488-.61250049-.87916737-.60416715-4.4583369.02083335-6.60000528.51250041-3.67083627.68750055-6.4166718.03750003-.52500042-.01250001-1.2083343.06250005-1.70416803.27916689-1.7916681.02500002-.02500002.97083411-2.27916849l.19583349-.48333372c.20416683-.55833378.01666668-.00833334.2500002-.75833394.03333336-.10833342.11250009-.43750035.15000012-.5416671.02916669-.09166674.05000004-.18333348.0833334-.27083355l.93750075-1.49583453c.71250057-.89583405 1.03750083-1.34166774 2.23333512-1.89583485.07500006-.03750003.15833346-.07916673.23750019-.10833342.15416679-.06250005.65416719-.21666684.80000064-.24583353l4.59167034-.55000044c8.79584037-.14166678 8.37084003 1.0000008 11.40000912 6.07083819 1.60000128 2.67916881 4.69583709 5.75417127 7.3750059 7.07083899l1.88750151.93333408c2.24583513.15000012 1.86250149.94583409 5.09167074.61666716-.49583373-1.64166798-1.40416779-2.30000184-1.7083347-4.03750323l-1.44166782-10.47500838c-.12083343-4.49583693 3.08750247-10.51250841 2.92500234-15.22501218-.31250025-9.15417399-10.43334168-11.24584233-10.89584205-4.07083659-.10000008 1.5416679 1.03333416 9.75417447-3.84583641 10.72917525-3.60416955.72083391-11.63750931-1.56666792-15.32501226-2.77500222-1.666668-.54583377-1.15416759-.12083343-1.97916825-1.46250117-3.90833646-.07916673-3.61250289-7.60000608-4.26667008-9.64584105-.51666708-1.60833462-.5000004-7.85417295.17500014-8.47917345.42916701-.40000032 2.34166854-.43333368 3.19583589-.30833358l1.09583421.32083359c1.86666816.63750051 2.53750203.15000012 4.2500034.49583373 2.53750203.51250041 5.29583757 1.53750123 8.11250649 1.27500102.14583345-4.32917013-9.04584057-8.65834026-12.7083435-10.22500818l-11.68334268-3.90833646c-.63750051-.12083343-1.02500082-.09166674-1.56250125-.17916681l-11.52917589-2.28750183c-2.17500174-.0416667-5.67500454-.44583369-7.22500578.43333368"/>
</svg>
