<svg xmlns="http://www.w3.org/2000/svg" xmlns:xlink="http://www.w3.org/1999/xlink" xml:space="preserve" fill-rule="evenodd" stroke-linejoin="round" stroke-miterlimit="2" clip-rule="evenodd" viewBox="0 0 635 162"><path fill="#303030" fill-rule="nonzero" d="m222.475 108.427-25.237-72.823c-.578-1.733-1.349-4.623-1.349-7.128 0-6.743 5.394-13.293 14.064-13.293 7.32 0 12.137 4.624 14.256 11.367l15.797 52.401 16.183-52.208c2.119-6.936 7.513-11.752 15.027-11.752h1.734c7.513 0 12.908 4.816 15.027 11.752l16.375 52.401 16.183-52.787c1.926-6.164 6.357-11.174 14.063-11.174 8.092 0 13.679 6.165 13.679 13.486 0 1.927-.578 4.624-.964 5.972l-26.008 73.786c-3.082 9.054-9.054 13.1-16.182 13.1h-.964c-7.128 0-13.1-4.046-15.797-12.522l-16.375-52.016-16.568 52.016c-2.698 8.476-8.67 12.522-15.798 12.522h-.963c-7.128 0-13.1-4.046-16.183-13.1M412.626 83.19v-5.202c-5.009-2.311-11.559-3.853-18.687-3.853-12.523 0-20.229 5.009-20.229 14.257v.385c0 7.898 6.55 12.522 15.99 12.522 13.679 0 22.926-7.513 22.926-18.109m-67.235 6.743v-.387c0-22.539 17.145-32.942 41.612-32.942 10.404 0 17.917 1.734 25.237 4.238v-1.733c0-12.138-7.512-18.881-22.154-18.881-8.092 0-14.642 1.157-20.229 2.89-1.734.578-2.89.771-4.238.771-6.743 0-12.137-5.201-12.137-11.944 0-5.202 3.275-9.633 7.899-11.367 9.247-3.468 19.266-5.394 32.943-5.394 15.99 0 27.549 4.238 34.87 11.559 7.706 7.706 11.174 19.073 11.174 32.943v47.007c0 7.899-6.358 14.064-14.257 14.064-8.476 0-14.063-5.972-14.063-12.137v-.193c-7.128 7.899-16.952 13.101-31.209 13.101-19.458 0-35.448-11.174-35.448-31.595M444.992 107.849v-.578c0-5.587 1.927-9.247 6.55-14.256l47.971-52.979H458.67c-6.55 0-11.944-5.202-11.944-11.752 0-6.551 5.394-11.944 11.944-11.944h64.153c8.285 0 14.256 4.816 14.256 11.751v.578c0 5.587-1.926 9.247-6.55 14.256l-48.163 52.98h42.77c6.549 0 11.943 5.394 11.943 11.944 0 6.55-5.394 11.752-11.943 11.752h-65.888c-8.283 0-14.256-4.816-14.256-11.752"/><path fill="#303030" fill-rule="nonzero" d="M606.433 59.879c-1.733-13.1-9.439-21.962-21.77-21.962-12.135 0-20.035 8.669-22.346 21.962h44.116Zm-18.88 62.034c-31.016 0-53.941-21.77-53.941-53.365v-.385c0-29.475 20.999-53.75 51.051-53.75 34.486 0 49.705 28.32 49.705 49.704 0 8.477-5.973 14.064-13.678 14.064h-57.988c2.889 13.293 12.136 20.228 25.236 20.228 8.093 0 14.836-2.504 20.808-6.935 2.119-1.541 4.045-2.312 7.127-2.312 6.55 0 11.368 5.009 11.368 11.559 0 3.853-1.735 6.743-3.854 8.67-9.055 7.705-20.807 12.522-35.834 12.522"/><use xlink:href="#a" width="195" height="83" transform="translate(0 78.437)"/><use xlink:href="#b" width="31" height="7" x="109.191" y="116.985"/><use xlink:href="#c" width="31" height="7" x="58.428" y="116.985"/><path fill="url(#d)" fill-rule="nonzero" d="M-.206-.09a.421.421 0 0 0 .132.224.52.52 0 0 0 .284.132C.243.27.279.272.317.274c.148.008.239.019.239.108 0 .01.008.019.021.024A.052.052 0 0 0 .616.403C.832.282.856.076.855-.069L.854-.101v-.015a.43.43 0 0 0-.038-.202.511.511 0 0 0-.331-.241.649.649 0 0 0-.457.053c-.149.08-.241.217-.24.357a.621.621 0 0 0 .006.059Z" transform="matrix(-.56178 95.2573 -129.797 -.76548 89.539 23.59)"/><path fill="#3d3d3d" fill-rule="nonzero" d="M109.028 0c-2.705 0-5.431.183-8.105.544-11.193 1.512-22.2 6.169-30.992 13.112-9.907 7.823-16.3 17.881-18.487 29.089-.65 3.332-.928 7.017-1.197 10.581-.421 5.579-.857 11.347-2.631 15.117-1.212 2.576-3.022 4.292-7.911 4.292a7.098 7.098 0 0 0-5.668 11.368c16.548 21.954 44.426 24.493 63.956 24.493.484 0 .966-.001 1.44-.004.34-.002.69-.003 1.049-.003l1.661.003c.626.002 1.273.004 1.939.004 9.102 0 18.735-.451 27.515-3.724 7.316-2.729 14.282-7.146 20.145-12.774 6.338-6.082 10.99-13.258 13.455-20.751 2.774-8.435 3.47-16.912 2.068-25.198-1.31-7.745-4.387-15.004-9.144-21.577-5.373-7.423-12.723-13.621-21.256-17.924C128.241 2.299 118.616 0 109.028 0m0 7.097c31.977 0 60.44 28.549 49.427 62.033-4.436 13.488-16.792 24.412-29.337 29.091-8.182 3.051-17.741 3.279-25.036 3.279-1.276 0-2.482-.007-3.6-.007-.374 0-.737.001-1.09.003-.461.003-.929.004-1.399.004-18.33 0-43.642-2.237-58.288-21.668 20.069 0 16.109-22.428 18.704-35.728 3.956-20.269 24.009-33.899 43.465-36.527a53.488 53.488 0 0 1 7.154-.48"/><path fill="#3d3d3d" fill-rule="nonzero" d="M99.9 42.449a6.815 6.815 0 1 0-13.63 0 6.815 6.815 0 0 0 13.63 0M131.738 42.449a6.815 6.815 0 1 0-13.63 0 6.815 6.815 0 0 0 13.63 0M108.76 78.993c-11.548 0-21.95-7.571-23.858-17.48a3.549 3.549 0 0 1 6.969-1.342c1.121 5.827 8.097 11.961 17.396 11.719 9.686-.254 16.085-6.046 17.4-11.636a3.55 3.55 0 0 1 6.908 1.625c-1.073 4.561-4.012 8.79-8.276 11.906-4.44 3.245-9.919 5.043-15.845 5.199-.232.006-.463.009-.694.009M60.422 107.788c0-7.772 6.3-14.071 14.072-14.071 7.772 0 14.073 6.299 14.073 14.071 0 7.772-6.301 14.072-14.073 14.072s-14.072-6.3-14.072-14.072"/><path fill="#515252" fill-rule="nonzero" d="M69.85 107.787a4.644 4.644 0 1 0 9.289 0 4.644 4.644 0 0 0-9.289 0"/><path fill="#3d3d3d" fill-rule="nonzero" d="M109.265 107.788c0-7.772 6.3-14.071 14.072-14.071 7.772 0 14.073 6.299 14.073 14.071 0 7.772-6.301 14.072-14.073 14.072s-14.072-6.3-14.072-14.072"/><path fill="#515252" fill-rule="nonzero" d="M118.693 107.787a4.644 4.644 0 1 0 9.289 0 4.644 4.644 0 0 0-9.289 0"/><defs><radialGradient id="d" cx="0" cy="0" r="1" gradientTransform="matrix(1 0 0 -1 0 -.187)" gradientUnits="userSpaceOnUse"><stop offset="0" stop-color="#f5f6f7"/><stop offset=".05" stop-color="#f5f6f7"/><stop offset=".74" stop-color="#cbd6db"/><stop offset="1" stop-color="#edeff1"/></radialGradient></defs></svg>