<svg xmlns="http://www.w3.org/2000/svg" xml:space="preserve" fill-rule="evenodd" stroke-miterlimit="10" clip-rule="evenodd" viewBox="0 0 1136 266"><ellipse cx="-18.716" fill="none" stroke="#1d1d1b" stroke-width="2.61" rx="18.715" ry="18.716" transform="matrix(0 -4.16667 -4.16667 0 132.544 54.56)"/><path fill="#1d1d1b" fill-rule="nonzero" d="M348.872 91.82v1.78c-11.13.945-14.563 10.295-21.9 27.462l-22.613 53.979h-1.658l-26.75-64.042c-3.555-8.642-6.275-16.217-16.813-17.4v-1.78h37.525v1.78c-16.687 1.654-11.242 11.125-8.167 18.583l18.942 45.692 13.967-33.5c10.183-24.267 12.075-28.17-5.917-30.775v-1.78h33.384Zm17.28 4.617c0 3.317-2.724 6.038-6.037 6.038-3.312 0-6.037-2.721-6.037-6.038 0-3.312 2.725-6.037 6.037-6.037 3.313 0 6.038 2.725 6.038 6.037m-19.296 75.88v-1.776c8.762-1.3 9.116-2.72 9.233-11.954v-22.612c0-4.971.12-6.509-7.22-10.771v-1.184l15.033-5.208 1.304.47v39.305c0 9.708.47 10.654 9.233 11.954v1.775h-27.583Zm38.519-65.7-1.067-1.654c3.079-2.133 9.946-6.512 13.617-6.512 5.204 0 13.491 6.391 18.82 6.391 3.55 0 7.696-2.958 10.18-5.445l1.304 1.304c-3.788 4.141-10.3 9.704-16.1 9.704-5.684 0-13.85-6.508-19.18-6.508-2.72 0-5.324 1.42-7.574 2.72m1.066 29.359c0-4.971.117-6.513-5.8-10.775v-1.18l14.084-5.212 1.304.475-.95 8.642c6.75-4.971 13.258-9.117 20.837-9.117 14.204 0 14.917 11.72 14.917 18.704v21.071c0 9.708.47 10.654 9.233 11.958v1.775h-27.583v-1.775c8.758-1.304 9.112-2.72 9.233-11.958v-13.612c0-8.288.354-20.005-14.087-20.005-4.854 0-8.167 1.538-12.075 5.092v28.525c0 9.708.475 10.654 9.233 11.958v1.775h-27.58v-1.775c8.76-1.304 9.118-2.72 9.234-11.958v-22.608Zm83.885-2.958c-1.067-5.446-4.384-11.604-10.655-11.604-6.745 0-10.775 6.633-12.075 12.55l22.73-.946Zm-23.559 9.116c-.946 12.309 7.459 23.792 20.834 23.792 6.158 0 10.416-2.725 13.97-7.458l1.775 1.304c-4.5 7.692-12.55 13.73-21.779 13.73-14.683 0-24.862-12.072-24.862-26.28 0-15.27 10.654-28.413 26.637-28.413 10.654 0 17.754 6.75 18.23 17.405h-34.33l-.475 5.92Zm81.785-2.96c0-13.734-10.417-16.692-15.984-16.692-11.008 0-15.741 11.246-15.741 20.717 0 17.046 10.179 24.383 18.941 24.383 4.734 0 10.3-4.142 12.784-8.167v-20.241Zm0 35.275v-11.246c-5.33 5.208-11.6 10.3-19.53 10.3-12.787 0-22.258-12.55-22.258-24.625 0-17.992 14.563-30.067 31.963-30.067 3.312 0 6.629.354 9.825 1.184v-15.509c0-4.97.12-6.508-5.8-10.77v-1.184l13.612-5.208 1.304.47v69.371c0 10.892 0 12.313 9.942 10.892l.47 2.013-19.528 4.379Zm47.72-53.035c-12.783 0-17.995 13.259-17.995 24.15 0 11.009 6.158 25.334 18.941 25.334 11.959 0 17.284-13.613 17.284-23.792 0-10.896-5.325-25.692-18.23-25.692m.117 52.088c-16.216 0-29.12-10.3-29.12-27.108 0-16.338 13.379-27.584 29.241-27.584 16.1 0 29.004 10.417 29.004 27.109 0 16.1-13.5 27.583-29.125 27.583m94.33-69.007-11.125 30.775h23.437l-12.312-30.775Zm-13.138 36.22c-2.017 5.922-7.22 18.234-7.22 23.913 0 7.221 8.166 7.221 13.49 8.05v1.775H631.42v-1.775c10.538-2.841 11.605-5.208 15.267-14.441l13.38-34.921 7.104-19.296c1.066-3.08 2.6-5.917 1.3-8.167 3.2-1.304 6.154-3.433 8.645-6.396l26.038 69.371c3.196 8.642 5.208 12.075 14.683 13.85v1.775h-34.804v-1.775c4.142-.946 9.113-2.246 9.113-7.575 0-4.97-4.5-16.1-7.575-24.387h-26.988Zm79.787-42.14c0 3.317-2.725 6.038-6.034 6.038-3.316 0-6.041-2.721-6.041-6.038 0-3.312 2.725-6.037 6.041-6.037 3.309 0 6.034 2.725 6.034 6.037m-19.296 75.88v-1.776c8.762-1.3 9.116-2.72 9.233-11.954v-22.612c0-4.971.117-6.509-7.22-10.771v-1.184l15.037-5.208 1.296.47v39.305c0 9.708.479 10.654 9.237 11.954v1.775h-27.583Z"/><path fill="#1d1d1b" fill-rule="nonzero" d="M753.587 138.114c0-4.971.116-6.513-5.8-10.775v-1.18l14.087-5.212 1.296.475-.942 8.642c6.742-4.971 13.254-9.117 20.83-9.117 14.204 0 14.92 11.72 14.92 18.704v21.071c0 9.708.471 10.654 9.23 11.958v1.775h-27.58v-1.775c8.763-1.304 9.117-2.725 9.234-11.958V147.11c0-8.288.354-20.005-14.088-20.005-4.854 0-8.17 1.538-12.075 5.092v28.525c0 9.708.47 10.654 9.233 11.958v1.775h-27.579v-1.775c8.759-1.304 9.113-2.725 9.234-11.958v-22.608ZM910.703 91.82v1.78c-13.496 1.416-22.492 12.9-31.255 22.016l-11.125 11.837 24.034 26.517c7.22 7.933 15.746 15.033 26.275 17.992l-.588 1.775c-20.596-1.654-23.912-2.25-35.037-14.442l-24.15-26.28 19.058-20.716c12.43-13.966 10.058-17.87 2.13-18.7V91.82h30.658Zm-53.505 61.083c.354 12.192.471 15.746 15.746 17.638v1.775h-40.842v-1.775c14.205-1.892 14.325-5.446 14.68-17.638v-41.67c-.355-12.192-.475-15.742-14.68-17.634V91.82h37.642v1.78c-12.075 1.89-12.192 5.44-12.546 17.633v41.67Zm77.747.594c-.475 1.538-.834 3.08-.834 4.733 0 4.971 2.846 9.35 8.288 9.35 3.2 0 6.396-2.129 8.525-4.379v-17.875l-15.98 8.171Zm15.979-10.533c.946-12.904-2.367-18.234-11.721-18.234-8.167 0-7.338 3.905-7.338 10.417l-5.916.354c-.95 0-2.725.121-2.725-1.183 0-3.196 13.025-15.508 22.608-15.508 10.892 0 14.208 8.287 14.208 17.758v16.808c0 10.417-.708 12.904 10.296 15.154v1.775c-4.5 1.305-8.404 2.605-11.954 2.605-4.975 0-6.867-2.842-7.458-7.459-3.788 4.263-8.996 8.05-15.038 8.05-7.575 0-11.833-6.391-11.833-13.496 0-1.775.237-3.429.708-5.208l26.163-11.833Zm39.256 15.621c0 9.709.475 10.655 11.841 11.959v1.775h-29.596v-1.775c8.171-1.304 8.525-2.725 8.642-11.959v-22.608c0-4.975.117-6.512-5.8-10.775v-1.179l14.088-5.213 1.3.475-.475 13.967h.237c2.608-6.27 9.233-14.442 16.696-14.442 3.308 0 6.033 2.134 6.033 5.446 0 3.196-3.433 6.159-6.154 7.459-2.017-1.542-4.97-4.142-7.58-3.905-10.057.946-9.232 17.042-9.232 18.821v11.954Z"/><path fill="#1d1d1b" fill-rule="nonzero" d="M1030.27 96.437c0 3.317-2.725 6.038-6.034 6.038-3.316 0-6.041-2.721-6.041-6.038 0-3.312 2.725-6.037 6.041-6.037 3.309 0 6.034 2.725 6.034 6.037m-19.296 75.88v-1.776c8.762-1.3 9.116-2.72 9.233-11.954v-22.612c0-4.971.117-6.509-7.22-10.771v-1.184l15.037-5.208 1.296.47v39.305c0 9.708.479 10.654 9.237 11.954v1.775h-27.583Zm47.696-13.732c0 9.709.475 10.655 8.287 11.959v1.775h-26.042v-1.775c8.171-1.304 8.525-2.725 8.642-11.959v-22.608c0-4.975.117-6.512-5.8-10.775v-1.179l14.088-5.213 1.3.475-.946 9.117c5.446-4.737 12.075-9.592 19.65-9.592 6.154 0 12.312 3.555 14.441 9.592 5.563-4.737 11.959-9.592 19.65-9.592 17.521 0 15.392 17.875 15.392 24.267v15.508c0 9.709.47 10.655 8.288 11.959v1.775h-26.046v-1.775c8.166-1.304 8.525-2.725 8.641-11.959v-12.55c0-4.495 1.896-21.066-13.379-21.066-5.087 0-8.404 2.246-11.837 5.8v27.816c0 9.709.479 10.655 8.287 11.959v1.775h-26.037v-1.775c8.162-1.304 8.516-2.725 8.637-11.959v-12.55c0-6.391 1.421-21.066-13.258-21.066-5.092 0-8.642 2.483-11.958 5.916v27.7Z"/><path fill="#1d1d1b" d="M112.254 89.416c-.059.067-.171.054-.209.158l-1.037.434c-4.23 1.325-4.221 3.8-3.754 8.229.525 4.987 6.487 2.579 9.55 2.066 2.745-.462 7.695 1.842 10.275 3.125 3.82 1.9 2.933 1.25 2.937 11.009.004 6.266 1.096 9.166-3.308 10.396-6.659 1.858-4.717 1.295-11.984 1.658-7.291.367-9.1 1.808-10.366-1.967-.821-2.437-.125-3.233-1.367-5.429-.42-.746-.817-1.1-1.587-1.83-.3-.282-.692-.578-.884-.716l-1.237-1.196c-4.1.096-7.667-3.995-5.792 4.817.396 1.846.45.733.7 2.388.192 1.279-.008 1.733.33 3 .628 2.366-.597 8.466-.2 12.233.178 1.696 2.316 7.733 3.024 9.975.321 1.004 3.7 6.254 4.521 6.604 1.146.488.33.367.963-.092.979-.966-.146-.375-.213-3.654-.112-5.591-3.98-5.146 1.475-10.633 1.838-1.85 3.308-3.042 5.93-3.825 1.95-.588 7.02-.654 8.874.187 1.234.559 4.263 3.042 5.913 3.842 1.308.638 2.25.325 2.82 1.913l1.484 8.466c.225 1.354.22.45.537 1.78.267 1.137.225 1.179.525 2.174l1.45 5.338c.388 1.196.292 1.883.313 3.154-3.213-.02-6.588-.217-9.171.43-2.646.662-6.262-.038-7.12 2.553-1.422 4.3.79 6.717 3.84 7.855.584.22 1.23.454 1.772.55 6.854 1.208 6.104.841 14.112.833 6.084-.004 4.263.617 9.134.662 3.325.038 17.529.863 19.358-.258-.042-3.312-8.675-5.929-12.783-7.887-1.059-.509-1.113-.688-2.084-1.263-.996-.592-.2-.075-1.162-.533l-2.542-1.934c-1.275-1.241-2.592-2.787-3.433-4.4-1.638-3.137-.921-2.416-1.538-3.87-.829-1.934-.612-.88-.604-4.459.02-6.6.513-3.67.688-6.416.037-.525-.013-1.209.062-1.705.28-1.791.025-.025.97-2.279l.197-.483c.204-.558.016-.008.25-.758.033-.109.112-.438.15-.542.029-.092.05-.183.083-.27l.938-1.497c.712-.896 1.037-1.341 2.233-1.896.075-.037.158-.079.237-.108a7.94 7.94 0 0 1 .8-.246l4.592-.55c8.796-.141 8.37 1 11.4 6.071 1.6 2.68 4.696 5.754 7.375 7.07l1.888.934c2.245.15 1.862.946 5.091.617-.496-1.642-1.404-2.3-1.708-4.038l-1.442-10.475c-.12-4.495 3.088-10.512 2.925-15.225-.312-9.154-10.433-11.245-10.896-4.07-.1 1.541 1.034 9.754-3.845 10.729-3.605.72-11.638-1.567-15.325-2.775-1.667-.546-1.155-.121-1.98-1.463-3.908-.079-3.612-7.6-4.266-9.646-.517-1.608-.5-7.854.175-8.479.429-.4 2.341-.433 3.196-.308l1.095.32c1.867.638 2.538.15 4.25.497 2.538.512 5.296 1.537 8.113 1.275.146-4.33-9.046-8.659-12.708-10.225l-11.684-3.909c-.637-.12-1.025-.091-1.562-.179l-11.53-2.287c-2.174-.042-5.674-.446-7.224.433"/></svg>