<svg xmlns="http://www.w3.org/2000/svg" xml:space="preserve" width="561" height="675" style="fill-rule:evenodd;clip-rule:evenodd;stroke-linejoin:round;stroke-miterlimit:2"><path d="m110.37 262.375-1.857 1.072v-70.452l1.857-1.072z" style="fill:#772c2d;fill-rule:nonzero" transform="translate(-23.028 -969.922)scale(5.13396)"/><path d="m106.656 262.375 1.857 1.072v-70.452l-1.857-1.072z" style="fill:#8a3a3b;fill-rule:nonzero" transform="translate(-23.028 -969.922)scale(5.13396)"/><path d="m110.37 191.923-1.857-1.072-1.857 1.072 1.857 1.072z" style="fill:#a54d4d;fill-rule:nonzero" transform="translate(-23.028 -969.922)scale(5.13396)"/><path d="m42.866 263.305-.2-.117a.23.23 0 0 1 .085-.316l64.998-37.283a.231.231 0 1 1 .23.402l-64.998 37.282zM42.866 232.229l-.2-.117a.23.23 0 0 1 .085-.315l64.998-37.283a.23.23 0 0 1 .316.086.23.23 0 0 1-.086.316l-64.998 37.282zM42.866 246.022l-.2-.116a.23.23 0 0 1 .085-.316l64.998-37.284a.232.232 0 0 1 .23.402l-64.998 37.284z" style="fill:#f8cf1c;fill-rule:nonzero" transform="translate(-23.028 -969.922)scale(5.13396)"/><path d="M90.897 226.192s-1.708 7.774-1.279 15.147c.267 4.571 1.628 21.654 1.628 25.41v6.759s-.788 1.703-2.461 1.365c-2.421-.488-2.421-1.991-2.421-1.991s.688-7.635 1.158-14.645c.469-7.009-1.222-18.147-.877-23.468s1.679-10.997 1.679-10.997z" style="fill:#461718;fill-rule:nonzero" transform="translate(-23.028 -969.922)scale(5.13396)"/><path d="M78.559 229.975c-.185-.393-.694-.552-1.098-.475a1.3 1.3 0 0 0-.61-.49l-.108-.153a1.87 1.87 0 0 0-1.067-.521 1.6 1.6 0 0 0-.543.042l-.12-.041-.086-.011c-.196-.026-.421.041-.618.157a.67.67 0 0 0-.658-.206l-.11.031c-.647.174-.761 1.058-.217 1.418-.22.683-.232 1.547.471 1.867a.9.9 0 0 0 .487.069c.031.262.122.521.245.78-.305 1.055-.252 2.429.694 2.911.217.11.399.152.565.167-.052.387.046.832.33 1.039.161.116.419.097.581 0 .463-.28.478-.814.414-1.308-.034-.271-.188-.44-.372-.515.132-.398.183-.887.201-1.334a1.15 1.15 0 0 0 .636-.295c.392-.005.765-.198 1.002-.64.416-.781.344-1.723-.019-2.492" style="fill:#7c1221;fill-rule:nonzero" transform="translate(-23.028 -969.922)scale(5.13396)"/><path d="M109.384 218.369c-1.368-1.423-3.011-2.062-4.924-1.854.775-.393 2.643-1.374 1.82-2.269-.417-.454-1.194-.35-1.965-.079.259-.288.507-.582.708-.892.227-.35.398-.849.021-1.179-.567-.497-1.383-.185-2.127.316.386-.883.592-1.783-.063-2.012-.44-.154-.94.329-1.246.598a5.3 5.3 0 0 0-.755.828c-.051-1.029-.222-2.318-.825-2.552-.717-.277-1.226.689-1.532 1.49-.352-.69-.937-1.291-1.771-.934-.775.332-.787 1.105-.6 1.811a6.3 6.3 0 0 0-1.865-.535c-.193-.024-.337.21-.287.376.198.654.539 1.173 1.071 1.464l.025.087.092.069.003.031c-1.425-.096-2.6.19-3.921.776-.228.101-.185.435 0 .548.516.314.992.543 1.505.731-.946.417-2.217 1.103-1.918 2.02.171.521.769.622 1.407.577-1.118.875-2.19 2.146-1.491 3.268.053.086.162.167.271.155.479-.055.922-.211 1.349-.413-.452.792-.659 1.708-.258 2.566a.3.3 0 0 0 .266.153c.494-.051.924-.266 1.336-.527-.456 1.207-.834 2.682.006 3.664.093.109.284.124.402.052.304-.186.548-.437.772-.708-.414 1.162-.576 2.438-.383 3.412.273 1.37 1.101 1.008 1.804.3-.03.278-.044.563-.024.864.013.187.162.292.342.26.995-.176 1.888-.689 2.35-1.556.621 3.273 2.229 2.536 3.055.291.417.718.96 1.465 1.728 1.075.82-.415.763-1.588.514-2.636.344.292.708.559 1.113.811.196.122.513.013.559-.227.224-1.162.191-2.166-.086-3.186.651.499 1.374.819 1.882.021.637-1.003-.449-2.755-1.357-3.886.695.222 1.385.457 2.079.686.259.085.484-.181.425-.424-.288-1.171-.93-1.973-1.754-2.641.659.065 1.335.01 2.085-.174.275-.068.349-.422.162-.616" style="fill:#e5e769;fill-rule:nonzero" transform="translate(-23.028 -969.922)scale(5.13396)"/><path d="M78.326 232.588c-.011-2.343 2.941-2.199 5.037-1.767a9 9 0 0 1-.762-.598c-.51-.45-1.822-1.509-1.541-2.364.467-1.416 3.264.041 4.897 1.008-.43-.966-.727-2.178.163-2.51.886-.33 1.864.863 2.382 1.842a7.3 7.3 0 0 1-.189-2.74c.08-.7.132-1.911.805-2.333 1.078-.674 1.725.849 2.074 2.152.349-.933.67-1.875.933-2.839a.432.432 0 0 1 .628-.256c1.213.701 1.388 1.929 1.088 3.106.573-.781 1.193-1.53 1.777-2.303.181-.24.601-.253.686.09.092.373.136.742.19 1.112.557-1.285 1.408-2.51 2.67-2.33 1.582.226.883 2.305.114 3.738.602-.196 3.831-.415 4.916-.321.289.025.392.374.146.542-1.009.688-2.054 1.253-3.137 1.766 1.247.164 2.334.617 3.466 1.387.123.084.157.297 0 .373-.786.38-1.578.72-2.416.973-.082.025-.98.217-1.464.332.09.043.184.087.339.137 1.226.396 2.524 1.59 2.976 2.787.035.092-.009.191-.068.259-.754.88-2.139.52-3.295.015.69.937 1.131 1.974 1.341 3.21.036.208-.141.484-.387.386-1.029-.41-1.964-.907-2.803-1.577.696 1.26 1.397 3.023.572 3.751-.602.532-1.284.095-1.864-.578.017.373.012.749-.043 1.13-.115.796-.417 2.333-1.369 2.553-1.129.259-1.956-1.345-2.395-2.723a6 6 0 0 1-.375 1.293c-.251.606-.793 1.831-1.521 2.041-.49.142-.839-.138-1.048-.577-.444-.929-.604-2.111-.742-3.219-.818 1.016-2.08 2.053-3.149 1.529-.529-.258-.525-.746-.466-1.246.118-1.003.433-2.231.938-3.201-1.559.902-4.692 1.988-5.863.536-.196-.243-.198-.601.101-.776.408-.238.822-.446 1.239-.649-2.089-.317-4.572-1.069-4.581-3.141" style="fill:#7c8535;fill-rule:nonzero" transform="translate(-23.028 -969.922)scale(5.13396)"/><path d="M68.747 217.775c1.368-1.422 3.011-2.062 4.924-1.853-.775-.394-2.643-1.374-1.82-2.27.417-.453 1.193-.349 1.965-.078a7.4 7.4 0 0 1-.709-.892c-.227-.35-.397-.849-.02-1.179.567-.497 1.383-.185 2.126.316-.384-.883-.591-1.783.064-2.012.44-.154.94.33 1.245.597.289.253.536.532.756.829.051-1.029.223-2.318.825-2.552.716-.278 1.226.689 1.532 1.49.351-.691.937-1.291 1.771-.934.775.331.787 1.105.599 1.811a6.3 6.3 0 0 1 1.866-.535c.193-.025.337.21.286.376-.197.654-.538 1.173-1.071 1.464l-.025.087-.092.069-.002.031c1.425-.096 2.599.19 3.921.776.227.101.185.434 0 .547a8.4 8.4 0 0 1-1.505.732c.945.417 2.217 1.102 1.917 2.019-.17.522-.768.623-1.406.578 1.118.875 2.189 2.146 1.491 3.267-.054.086-.162.168-.271.156-.48-.054-.923-.211-1.349-.413.452.792.659 1.708.258 2.566a.3.3 0 0 1-.267.152c-.494-.05-.923-.265-1.335-.526.455 1.207.834 2.682-.006 3.665-.093.108-.285.124-.403.051-.303-.187-.547-.437-.771-.709.414 1.162.576 2.439.382 3.413-.273 1.371-1.101 1.007-1.803.3.03.279.043.563.023.864-.012.186-.161.293-.341.26-.995-.175-1.888-.69-2.35-1.555-.621 3.271-2.23 2.534-3.055.291-.417.717-.96 1.464-1.728 1.074-.82-.415-.763-1.589-.514-2.636a9.4 9.4 0 0 1-1.113.812c-.196.122-.513.011-.559-.228-.223-1.162-.191-2.166.086-3.186-.651.499-1.374.818-1.882.021-.637-1.003.448-2.755 1.357-3.886-.695.222-1.386.457-2.079.686-.259.085-.484-.181-.425-.424.288-1.171.93-1.974 1.754-2.642-.659.066-1.335.011-2.084-.173-.276-.068-.35-.422-.163-.617" style="fill:#8fa23b;fill-rule:nonzero" transform="translate(-23.028 -969.922)scale(5.13396)"/><path d="M76.289 216.913c-1.017-.081-3.559.187-4.151.562.256.593.861.935 1.524 1.097-.385.751-.785 1.883-.588 2.736.592-.005 1.559-.578 1.82-.814.297.428 1.045.785 1.876.986.048-1.352-.285-3.867-.481-4.567" style="fill:#8fa23b;fill-rule:nonzero" transform="translate(-23.028 -969.922)scale(5.13396)"/><path d="M83.456 229.784c1.018-.081 3.559.188 4.151.563-.255.592-.86.934-1.523 1.096.384.752.785 1.884.587 2.737-.592-.005-1.559-.577-1.819-.815-.298.429-1.046.786-1.876.988-.049-1.354.285-3.869.48-4.569" style="fill:#e5e769;fill-rule:nonzero" transform="translate(-23.028 -969.922)scale(5.13396)"/><path d="M88.847 229.947c-.069-.77.038-1.443.641-1.821.005-.135.018-.27.083-.445.198-.536.59-.838 1.159-.882a1.7 1.7 0 0 1 .464.037l.193-.174c.405-.237.752-.271 1.1-.211.48-.332.853-.668 1.644-.449.653.182 1.089.674 1.363 1.253q.087-.144.224-.259c.257-.212.765-.264.928.119.189.445.233.779.163 1.256-.032.215-.193.322-.375.375.127.454.095.973-.12 1.352-.033.102-.048.201-.092.306-.172.403-.509.514-.837.448.036.377-.083.771-.336 1.112.072.295.232.596.159.977-.039.202-.201.413-.394.543-.142 1.157-.328 2.311-.857 3.355-.337.665-1.291.301-1.324-.359-.016-.138-.016-.275-.02-.413-.2-.053-.373-.185-.409-.408.007.048-.165-.551-.077-.831l-.212.009a5 5 0 0 1-.254-.105c-.396.273-.915.083-1.189-.275-.398-.518-.567-.995-.739-1.552-1.195-.612-1.705-1.755-.886-2.958M79.162 211.272c.069-.771-.038-1.444-.642-1.821a1.3 1.3 0 0 0-.082-.445c-.198-.537-.59-.839-1.159-.882a1.7 1.7 0 0 0-.465.037l-.193-.174c-.404-.237-.751-.272-1.099-.211-.48-.332-.854-.669-1.645-.449-.652.181-1.088.673-1.363 1.252a1 1 0 0 0-.223-.258c-.257-.212-.765-.263-.929.119a2.1 2.1 0 0 0-.162 1.256c.032.215.192.323.375.375-.128.454-.096.972.12 1.351.032.102.047.202.092.307.171.402.508.514.836.447-.036.378.084.772.337 1.113-.072.295-.232.595-.159.978.038.2.201.411.393.542.142 1.156.328 2.311.858 3.354.337.665 1.29.301 1.324-.358.016-.138.016-.275.02-.413.2-.054.373-.185.409-.408-.008.048.165-.55.076-.831l.213.009c.095-.037.175-.07.254-.105.396.273.914.083 1.189-.275.398-.518.567-.995.738-1.552 1.195-.612 1.706-1.754.887-2.958" style="fill:#7c1221;fill-rule:nonzero" transform="translate(-23.028 -969.922)scale(5.13396)"/><path d="M79.56 219.11c-.967-.427-1.943-1.131-1.616-2.275.424-1.482 2.314-1.335 3.68-1.531-.962-.547-1.77-1.383-1.071-2.565.591-.999 1.5-1.057 2.393-.74-.174-.514-.125-1.061.337-1.596 1.082-1.254 2.532-.179 3.644.828-.216-.657-.32-1.335-.184-2.052.024-.127.143-.224.26-.26 1.286-.39 2.427.856 3.183 2.057.157-1.321.66-2.875 1.933-2.935 1.06-.05 1.459.983 1.645 2.038.155-.321.329-.638.546-.974.193-.3.598-.22.717.094.415 1.092.454 2.036.116 2.987 1.958.126 3.626.742 5.231 1.966.162.123.244.44 0 .544a7.4 7.4 0 0 1-1.815.53c1.25.713 2.201 1.67 2.958 3.023.087.156.014.386-.173.426-.25.054-1.72.259-2.407.137.397.753.997 2.402.999 2.414.037.231-.131.427-.373.374a8.5 8.5 0 0 1-1.358-.418c.49.933.648 1.861.547 3.068-.021.251-.294.474-.539.31L97 223.747c.555 1.18.955 2.913.394 3.496-.638.662-2.091.083-2.718-.43.198 1.059.357 2.146-.087 3.275-.275.698-2.022-.694-2.559-1.334-.095 1.121-.274 2.525-1.309 2.716-1.062.195-1.719-.883-2.047-1.895-.498.855-1.219 1.771-2.171 1.454-.898-.299-1.167-1.585-1.222-2.675-.542.85-1.113 1.751-2.235 1.331-1.507-.568-1.11-2.549-.845-4.002-.724.731-1.64 1.461-2.421.754-.834-.756-.024-2.685.438-3.806-1.137.119-2.537.033-2.798-1.305-.276-1.424 1.058-1.78 2.14-2.216" style="fill:#b2bc35;fill-rule:nonzero" transform="translate(-23.028 -969.922)scale(5.13396)"/><path d="M101.074 215.075c.185-.393.694-.552 1.098-.475q.258-.363.61-.49l.108-.152a1.86 1.86 0 0 1 1.067-.522c.182-.022.362.003.543.042l.12-.04.086-.012c.196-.027.421.041.618.157a.67.67 0 0 1 .658-.206l.11.03c.647.175.761 1.059.217 1.419.22.683.232 1.548-.472 1.866a.9.9 0 0 1-.486.07 2.5 2.5 0 0 1-.246.78c.306 1.055.252 2.429-.693 2.91a1.5 1.5 0 0 1-.565.167c.051.388-.047.833-.331 1.039-.16.116-.418.098-.58 0-.463-.279-.478-.813-.415-1.307.035-.27.188-.441.373-.515-.132-.398-.183-.887-.201-1.334a1.15 1.15 0 0 1-.636-.294c-.392-.006-.766-.199-1.002-.642-.416-.78-.345-1.722.019-2.491" style="fill:#7c1221;fill-rule:nonzero" transform="translate(-23.028 -969.922)scale(5.13396)"/><path d="M94.097 207.667c1.074-.377 3.385-.031 4.411.148-.429-.41-1.751-2.101-1.097-2.396 1.073-.483 1.524-.074 2.581.45-.136-.693-.057-1.359-.01-2.134.068-1.104 2.836.991 3.828 1.855.022-1.361.5-3.193 1.712-3.694.763-.315.965 1.765.976 2.582.92-.736 2.304-1.611 3.142-1.061.37.244.377.613.279 1.017-.201.837-.576 1.67-.94 2.468 1.353-.333 2.753-.448 4.146-.446.322 0 .548.446.279.675A10.8 10.8 0 0 1 110.24 209c.796.089 2.885.306 3.044.969.211.876-1.988 1.751-3.282 1.351 1.197.854 2.488 1.611 3.519 2.661.96.98-3.514-.08-5.044-.743.502.774.822 1.644.93 2.637.032.294-.345.466-.573.329-1.259-.758-2.625-1.755-3.432-3.041-.03 1.095-.56 2.321-.932 3.221-.081.198-.323.37-.537.219a6.1 6.1 0 0 1-1.848-2.078 6.05 6.05 0 0 1-1.561 2.904c-.175.182-.532.154-.65-.084-.678-1.356-1.084-2.931-.912-4.449-1.392.712-4.706-.015-4.727-.877-.02-.81.871-1.858 2.126-2.22a12.5 12.5 0 0 1-2.373-1.299c-.329-.229-.273-.699.109-.833" style="fill:#e5e769;fill-rule:nonzero" transform="translate(-23.028 -969.922)scale(5.13396)"/><path d="M81.246 214.495c-.069-.771.038-1.444.641-1.821.005-.135.018-.27.083-.445.198-.537.59-.839 1.158-.883.174-.013.32.011.465.037l.193-.174c.404-.236.752-.271 1.1-.21.48-.332.853-.669 1.644-.45.653.181 1.089.674 1.363 1.253.059-.095.131-.183.224-.259.257-.211.765-.263.928.12.189.444.233.777.162 1.256-.031.214-.192.322-.374.374.127.455.095.973-.121 1.352-.032.102-.047.202-.091.307-.172.402-.509.513-.837.447.036.377-.083.771-.336 1.113.072.295.232.594.158.977-.038.201-.2.412-.393.543-.142 1.156-.328 2.31-.857 3.354-.337.665-1.291.301-1.324-.359-.016-.137-.017-.275-.02-.412-.2-.054-.373-.186-.409-.408.007.047-.165-.551-.077-.832l-.212.009c-.096-.036-.175-.07-.254-.104-.396.273-.915.083-1.189-.275-.398-.519-.567-.996-.739-1.552-1.195-.613-1.705-1.755-.886-2.958" style="fill:#7c1221;fill-rule:nonzero" transform="translate(-23.028 -969.922)scale(5.13396)"/><path d="M95.917 205.829c.01-2.343-2.941-2.199-5.037-1.767q.402-.281.762-.598c.509-.45 1.822-1.509 1.541-2.363-.467-1.417-3.264.041-4.897 1.007.429-.966.727-2.177-.163-2.509-.886-.331-1.864.861-2.382 1.841a7.3 7.3 0 0 0 .189-2.74c-.08-.7-.132-1.911-.805-2.332-1.078-.676-1.726.848-2.074 2.151a32 32 0 0 1-.933-2.839.433.433 0 0 0-.628-.256c-1.213.701-1.388 1.929-1.089 3.106-.572-.781-1.192-1.53-1.776-2.303-.182-.24-.602-.253-.686.089-.092.374-.137.743-.19 1.114-.557-1.286-1.409-2.511-2.671-2.331-1.58.226-.882 2.304-.113 3.738-.603-.196-3.831-.415-4.916-.321-.289.026-.392.374-.146.542 1.009.688 2.054 1.254 3.137 1.766-1.247.164-2.334.617-3.466 1.387-.123.083-.156.297 0 .372.786.381 1.578.721 2.416.974.082.026.98.217 1.464.333-.09.042-.183.086-.339.136-1.226.395-2.524 1.59-2.976 2.787-.035.092.009.191.069.26.753.879 2.138.519 3.294.014-.69.937-1.131 1.975-1.341 3.21-.035.207.141.484.387.386 1.029-.41 1.964-.907 2.803-1.577-.697 1.26-1.397 3.023-.573 3.751.603.532 1.285.095 1.865-.578-.017.373-.013.749.043 1.13.115.796.417 2.333 1.369 2.552 1.129.26 1.956-1.344 2.395-2.722.076.446.205.884.374 1.293.252.607.794 1.831 1.521 2.041.491.141.84-.138 1.049-.577.443-.929.604-2.111.742-3.219.818 1.016 2.08 2.053 3.149 1.53.529-.26.525-.747.466-1.247-.119-1.003-.433-2.231-.938-3.2 1.559.901 4.691 1.987 5.862.536.197-.244.198-.603-.1-.776a17 17 0 0 0-1.239-.649c2.088-.318 4.572-1.07 4.581-3.142" style="fill:#8fa23b;fill-rule:nonzero" transform="translate(-23.028 -969.922)scale(5.13396)"/><path d="M97.132 207.233c-.186-.393-.694-.552-1.098-.475a1.3 1.3 0 0 0-.611-.49l-.108-.152a1.86 1.86 0 0 0-1.066-.522 1.6 1.6 0 0 0-.543.042l-.121-.04-.085-.012c-.196-.026-.421.041-.619.158a.66.66 0 0 0-.657-.206l-.111.029c-.647.175-.76 1.059-.216 1.419-.221.683-.232 1.548.471 1.867a.9.9 0 0 0 .487.069c.03.262.122.52.245.781-.306 1.054-.252 2.428.694 2.909.217.111.398.153.564.167-.051.389.047.833.331 1.039.161.117.418.098.581 0 .462-.278.478-.813.414-1.307-.034-.27-.188-.441-.372-.514.131-.399.182-.888.2-1.334.229-.027.447-.126.637-.295.392-.006.765-.199 1.001-.641.417-.781.345-1.723-.018-2.492" style="fill:#7c1221;fill-rule:nonzero" transform="translate(-23.028 -969.922)scale(5.13396)"/><path d="M86.074 199.996a1.15 1.15 0 0 1-.644-.441.39.39 0 0 1 0-.403c.333-.528.873-.839 1.465-.964-.276-.134-.525-.331-.792-.578-.163-.15-.14-.483.074-.581.705-.322 1.401-.477 2.107-.465-.528-.498-.907-1.085-.52-1.587.37-.48 1.139-.447 1.911-.251-.275-.369-.361-.751.05-1.063.652-.496 1.81.076 2.709.708-.547-.947-1.032-2.299-.094-2.604.662-.216 1.286.127 1.812.638-.201-.927-.191-1.793.63-1.68.728.101 1.502.946 1.908 1.838.157-.61.488-1.195.848-1.672.081-.107.205-.183.345-.141.637.196.973.651 1.13 1.196a19 19 0 0 1 .802-1.695c.09-.166.392-.192.474 0 .296.699.522 1.588.482 2.425.655-.703 1.623-1.562 2.131-.95.455.547-.259 1.534-.888 2.253.906-.141 1.804.013 2.68.422.187.087.151.353 0 .45-.425.272-.859.519-1.301.751.874.006 1.84.17 1.83.926-.004.318-.192.497-.458.635-.484.252-1.222.345-1.889.394 1.223.406 2.182 1.198 2.946 2.302.142.204-.05.454-.266.465a9.7 9.7 0 0 1-1.922-.095c.686.659 1.383 1.533.997 2.185-.318.538-.938.392-1.502.112.272.605.475 1.253.408 1.859-.017.148-.093.28-.245.322-.628.171-1.327-.401-1.838-.914.254.858.161 1.823-.14 2.669-.078.218-.315.276-.49.129a7 7 0 0 1-1.161-1.238 5.7 5.7 0 0 1-.115 1.122c-.109.507-.304 1.589-.886 1.79-.779.267-1.318-1.307-1.565-2.444-.204 1.04-.682 2.21-1.563 2.491-.84.267-1.07-.452-1.114-1.248-.341.517-.77.933-1.374.862-.708-.083-1.09-.622-1.2-1.237-.199-.029-.387-.099-.505-.214-.204-.201-.283-.476-.301-.754-.475.452-1.058.696-1.697.349-.993-.54-.592-1.551-.163-2.459-.55.525-1.135 1.042-1.717 1.27-.336.132-.669.163-.957-.105-.661-.616-.141-1.459.438-2.185-.882.208-1.855.158-2.2-.627-.346-.787.451-1.47 1.33-1.968" style="fill:#7c8535;fill-rule:nonzero" transform="translate(-23.028 -969.922)scale(5.13396)"/><path d="M88.754 198.963c-1.017-.081-3.559.187-4.15.562.255.593.86.935 1.523 1.097-.384.752-.786 1.883-.587 2.736.591-.004 1.559-.577 1.819-.814.297.429 1.045.786 1.875.987.049-1.353-.284-3.868-.48-4.568" style="fill:#e5e769;fill-rule:nonzero" transform="translate(-23.028 -969.922)scale(5.13396)"/><path d="M80 194.199c-.839-.363-1.696-.929-1.554-1.723.156-.866 1.248-.783 2.217-.535l-.84-.936c-.158-.175-.144-.463.075-.588.798-.451 1.569-.148 2.276.351.818.577 1.693 1.315 2.273 2.172.163-1.397.7-2.702 1.464-3.886.127-.196.442-.171.507.067a7.6 7.6 0 0 1 .188 3.051c.179-.143.368-.274.58-.381.416-.209 1.283-.566 1.721-.264.359.246.252.593.056.914-.423.697-1.122 1.52-1.807 2.143.517-.188 1.058-.241 1.657-.166.52.065 1.348.197 1.623.726.208.399.025.669-.337.835-.445.203-1.066.198-1.544.271l-.862.134c1.356.805 2.574 1.861 2.595 3.582.003.26-.28.398-.497.285-1.048-.547-2.299-1.13-3.326-1.872.271.801.397 1.657.405 2.512.002.173-.161.367-.348.347a3.52 3.52 0 0 1-3.011-2.492q-.387 1.005-.779 2.007c-.095.243-.487.376-.625.082-.503-1.079-.835-2.236-.843-3.405-.302.711-.746 1.365-1.244 1.97-.189.231-.595.097-.66-.174a5.1 5.1 0 0 1 .24-3.152 7 7 0 0 0-1.058.801c-.17.155-.457.181-.624 0-1.074-1.166.637-2.167 2.082-2.676" style="fill:#e5e769;fill-rule:nonzero" transform="translate(-23.028 -969.922)scale(5.13396)"/><path d="M92.945 219.204c1.017-.081 3.559.187 4.151.562-.256.593-.861.935-1.524 1.097.385.751.786 1.883.588 2.736-.592-.005-1.559-.578-1.82-.814-.297.428-1.045.785-1.875.987-.049-1.353.285-3.868.48-4.568M76.695 201.254c1.017-.081 3.559.187 4.151.562-.256.594-.861.935-1.524 1.097.385.752.785 1.883.588 2.736-.592-.004-1.559-.577-1.82-.814-.297.429-1.045.786-1.875.987-.049-1.353.285-3.868.48-4.568" style="fill:#8fa23b;fill-rule:nonzero" transform="translate(-23.028 -969.922)scale(5.13396)"/><path d="M96.62 196.212c1.017-.082 3.559.187 4.151.562-.255.593-.861.935-1.524 1.097.384.751.786 1.883.588 2.736-.592-.005-1.56-.578-1.82-.814-.297.428-1.045.785-1.875.986-.049-1.352.284-3.867.48-4.567" style="fill:#e5e769;fill-rule:nonzero" transform="translate(-23.028 -969.922)scale(5.13396)"/><path d="M84.311 207.271c-1.018-.081-3.559.187-4.151.562.256.593.861.936 1.524 1.097-.385.752-.786 1.883-.588 2.737.592-.005 1.559-.578 1.82-.814.297.428 1.045.785 1.875.986.049-1.353-.285-3.868-.48-4.568M103.311 208.587c-1.018-.081-3.56.187-4.152.562.256.593.862.935 1.525 1.097-.385.752-.787 1.883-.588 2.736.592-.004 1.559-.577 1.819-.814.297.429 1.045.786 1.876.987.048-1.353-.285-3.868-.48-4.568" style="fill:#8fa23b;fill-rule:nonzero" transform="translate(-23.028 -969.922)scale(5.13396)"/><path d="m75.365 227.381-.201-.117a.23.23 0 0 1 .086-.316l8.999-5.162a.23.23 0 0 1 .316.086.23.23 0 0 1-.085.316l-8.999 5.162zM72.884 215.1l-.201-.117a.23.23 0 0 1 .086-.316l7.663-4.396a.23.23 0 0 1 .316.086.23.23 0 0 1-.086.316L73 215.069z" style="fill:#f8cf1c;fill-rule:nonzero" transform="translate(-23.028 -969.922)scale(5.13396)"/><path d="M59.119 241.503s1.708 7.772 1.278 15.146c-.266 4.573-1.627 21.655-1.627 25.41v6.759s.788 1.703 2.461 1.366c2.421-.49 2.421-1.992 2.421-1.992s-.689-7.635-1.158-14.645c-.47-7.01 1.221-18.148.877-23.469s-1.679-10.996-1.679-10.996z" style="fill:#461718;fill-rule:nonzero" transform="translate(-23.028 -969.922)scale(5.13396)"/><path d="M71.457 245.285c.185-.392.694-.552 1.098-.474a1.3 1.3 0 0 1 .61-.491l.108-.152a1.86 1.86 0 0 1 1.066-.522c.183-.022.363.003.543.042l.121-.041.085-.011c.197-.027.422.041.619.158a.66.66 0 0 1 .658-.206l.11.03c.647.175.76 1.058.217 1.418.22.684.232 1.548-.472 1.866a.9.9 0 0 1-.486.07c-.031.262-.123.52-.246.781.306 1.055.252 2.429-.694 2.909-.216.11-.398.153-.564.167.051.389-.046.833-.331 1.039-.16.117-.418.098-.58 0-.463-.278-.478-.813-.415-1.306.035-.271.188-.442.372-.515-.131-.399-.182-.888-.2-1.334a1.15 1.15 0 0 1-.637-.295c-.392-.006-.765-.198-1.001-.641-.416-.781-.344-1.722.019-2.492" style="fill:#7c1221;fill-rule:nonzero" transform="translate(-23.028 -969.922)scale(5.13396)"/><path d="M40.632 233.679c1.369-1.422 3.012-2.062 4.924-1.854-.775-.393-2.642-1.374-1.82-2.269.417-.453 1.194-.35 1.965-.078a7.3 7.3 0 0 1-.708-.893c-.227-.35-.398-.849-.021-1.179.567-.497 1.384-.185 2.127.316-.386-.883-.592-1.783.063-2.012.441-.153.941.33 1.246.598.287.253.535.532.755.828.051-1.029.222-2.318.825-2.552.717-.277 1.226.689 1.532 1.49.352-.69.937-1.291 1.771-.934.775.332.787 1.105.6 1.811a6.3 6.3 0 0 1 1.865-.535c.193-.024.337.21.287.377-.198.653-.539 1.172-1.071 1.463l-.026.088-.091.068-.003.03c1.425-.094 2.6.192 3.921.777.228.101.185.435 0 .548a8.3 8.3 0 0 1-1.505.731c.945.418 2.217 1.103 1.918 2.02-.171.521-.769.623-1.408.578 1.119.874 2.19 2.145 1.492 3.266-.054.087-.163.168-.271.156-.479-.054-.922-.211-1.349-.413.452.792.659 1.708.258 2.566a.3.3 0 0 1-.266.153c-.495-.051-.925-.265-1.336-.526.455 1.206.834 2.681-.006 3.664-.093.108-.284.124-.403.052-.303-.187-.547-.438-.771-.709.414 1.162.576 2.438.382 3.413-.273 1.37-1.101 1.007-1.803.3.029.278.044.562.024.863-.013.187-.162.293-.342.261-.995-.176-1.888-.691-2.35-1.556-.621 3.271-2.229 2.534-3.055.291-.417.718-.96 1.464-1.728 1.074-.819-.415-.763-1.589-.514-2.636-.343.291-.708.56-1.113.812-.196.122-.513.012-.559-.228-.224-1.162-.191-2.167.086-3.186-.651.5-1.374.819-1.882.021-.637-1.003.449-2.755 1.357-3.885-.694.221-1.385.457-2.079.685-.259.085-.484-.18-.424-.425.288-1.17.929-1.972 1.753-2.64-.659.065-1.335.01-2.085-.173-.275-.068-.349-.423-.162-.617" style="fill:#8fa23b;fill-rule:nonzero" transform="translate(-23.028 -969.922)scale(5.13396)"/><path d="M71.69 247.898c.01-2.343-2.941-2.199-5.037-1.767a9 9 0 0 0 .762-.598c.509-.449 1.822-1.51 1.541-2.363-.467-1.416-3.264.041-4.897 1.008.429-.967.727-2.178-.163-2.51-.886-.331-1.864.861-2.382 1.841a7.3 7.3 0 0 0 .189-2.739c-.08-.701-.132-1.912-.805-2.333-1.078-.675-1.725.848-2.074 2.151a32 32 0 0 1-.933-2.839.432.432 0 0 0-.628-.256c-1.213.701-1.388 1.93-1.089 3.106-.572-.782-1.193-1.53-1.777-2.303-.181-.239-.601-.253-.685.09-.092.373-.137.743-.19 1.113-.557-1.286-1.409-2.511-2.67-2.331-1.581.227-.883 2.305-.114 3.738-.603-.196-3.831-.415-4.916-.321-.289.025-.392.374-.146.542 1.009.688 2.054 1.254 3.137 1.766-1.247.165-2.334.618-3.466 1.387-.123.083-.157.297 0 .372.786.381 1.578.721 2.416.975.082.024.98.217 1.464.332-.09.042-.184.087-.339.137-1.226.394-2.524 1.59-2.976 2.786-.035.092.009.191.069.26.753.879 2.138.519 3.294.014-.69.938-1.131 1.975-1.341 3.21-.036.207.141.485.387.387 1.029-.41 1.964-.908 2.803-1.578-.697 1.261-1.397 3.023-.573 3.751.603.532 1.284.095 1.865-.577a6 6 0 0 0 .043 1.129c.115.796.417 2.333 1.369 2.552 1.129.261 1.956-1.344 2.395-2.722.076.446.205.884.374 1.294.252.606.794 1.832 1.521 2.041.491.14.84-.139 1.049-.578.443-.928.604-2.111.742-3.219.818 1.016 2.08 2.053 3.149 1.53.529-.26.525-.746.465-1.247-.118-1.003-.432-2.232-.938-3.2 1.559.901 4.692 1.987 5.863.536.197-.244.199-.603-.1-.777a18 18 0 0 0-1.239-.648c2.089-.317 4.572-1.07 4.581-3.142" style="fill:#7c8535;fill-rule:nonzero" transform="translate(-23.028 -969.922)scale(5.13396)"/><path d="M81.269 233.086c-1.369-1.423-3.012-2.063-4.924-1.854.775-.393 2.642-1.374 1.82-2.269-.417-.454-1.194-.351-1.965-.079.259-.288.507-.581.708-.892.227-.349.398-.848.021-1.179-.568-.497-1.384-.185-2.127.316.385-.884.592-1.783-.064-2.012-.44-.154-.94.33-1.245.597a5.3 5.3 0 0 0-.755.829c-.051-1.029-.223-2.318-.825-2.552-.717-.278-1.226.689-1.532 1.49-.352-.69-.937-1.291-1.771-.934-.775.331-.787 1.105-.6 1.811a6.3 6.3 0 0 0-1.865-.535c-.193-.025-.337.21-.287.376.198.655.539 1.173 1.071 1.464l.026.087.091.068.003.032c-1.425-.096-2.6.19-3.921.776-.228.101-.185.435 0 .548.517.314.992.543 1.505.731-.945.417-2.217 1.103-1.918 2.02.17.521.769.622 1.407.577-1.118.875-2.189 2.145-1.491 3.268.054.085.162.168.271.155.479-.055.922-.211 1.349-.412-.452.792-.659 1.707-.258 2.565a.29.29 0 0 0 .266.152c.494-.049.924-.265 1.336-.526-.455 1.207-.834 2.682.006 3.664.093.109.284.125.402.052.304-.187.547-.437.771-.708-.414 1.162-.576 2.437-.381 3.413.273 1.37 1.101 1.007 1.803.299a5 5 0 0 0-.024.864c.013.187.162.292.342.261.995-.176 1.888-.691 2.35-1.557.621 3.273 2.229 2.535 3.054.291.417.718.96 1.465 1.729 1.075.819-.416.763-1.588.514-2.636.343.292.708.56 1.112.811.197.123.514.013.56-.227.223-1.162.19-2.166-.086-3.186.651.499 1.374.818 1.881.021.638-1.003-.448-2.754-1.356-3.886.694.222 1.385.457 2.079.686.259.085.484-.181.424-.424-.288-1.171-.929-1.973-1.753-2.641.659.065 1.335.01 2.084-.174.276-.067.35-.422.163-.616" style="fill:#e5e769;fill-rule:nonzero" transform="translate(-23.028 -969.922)scale(5.13396)"/><path d="M73.727 232.223c1.017-.081 3.559.187 4.15.562-.255.593-.86.936-1.523 1.097.384.752.785 1.884.587 2.736-.591-.005-1.559-.577-1.819-.814-.297.428-1.045.786-1.876.987-.049-1.353.285-3.868.481-4.568M66.56 245.095c-1.018-.081-3.559.186-4.151.561.255.594.86.936 1.523 1.098-.384.751-.785 1.883-.587 2.735.592-.004 1.559-.577 1.819-.813.297.428 1.046.785 1.876.986.048-1.352-.285-3.867-.48-4.567" style="fill:#8fa23b;fill-rule:nonzero" transform="translate(-23.028 -969.922)scale(5.13396)"/><path d="M61.169 245.257c.069-.771-.038-1.444-.642-1.82a1.3 1.3 0 0 0-.082-.446c-.198-.537-.59-.838-1.159-.882a1.8 1.8 0 0 0-.465.037l-.193-.174c-.404-.237-.751-.271-1.099-.21-.481-.332-.853-.669-1.644-.449-.654.18-1.089.672-1.363 1.251a1.1 1.1 0 0 0-.224-.258c-.257-.211-.765-.263-.928.12a2.1 2.1 0 0 0-.163 1.256c.032.214.192.322.375.374-.127.454-.096.973.12 1.351.032.103.048.202.092.307.171.402.509.515.836.448-.036.377.084.772.337 1.112-.072.295-.232.595-.159.978.038.201.2.411.393.543.142 1.155.328 2.309.858 3.353.337.665 1.291.301 1.323-.358.017-.138.017-.275.021-.413.2-.053.373-.186.409-.407-.008.047.165-.551.076-.831l.213.008c.095-.037.174-.07.254-.104.396.272.915.082 1.189-.275.398-.519.567-.997.739-1.552 1.195-.612 1.705-1.755.886-2.959" style="fill:#7c1221;fill-rule:nonzero" transform="translate(-23.028 -969.922)scale(5.13396)"/><path d="M70.456 234.42c.966-.427 1.943-1.131 1.616-2.274-.425-1.483-2.314-1.335-3.68-1.532.962-.547 1.77-1.383 1.071-2.564-.591-1-1.5-1.058-2.394-.741.175-.514.126-1.061-.336-1.596-1.082-1.254-2.533-.179-3.645.828.216-.657.32-1.335.185-2.051-.024-.128-.143-.225-.261-.261-1.285-.39-2.427.856-3.182 2.057-.158-1.321-.661-2.875-1.933-2.935-1.06-.05-1.459.983-1.645 2.038a9 9 0 0 0-.546-.974c-.193-.299-.598-.22-.717.094-.415 1.092-.454 2.036-.116 2.987-1.958.125-3.626.742-5.231 1.967-.161.123-.244.439 0 .543a7.4 7.4 0 0 0 1.815.53c-1.25.713-2.201 1.67-2.958 3.024-.087.155-.014.385.173.425.25.055 1.72.259 2.407.137-.397.754-.997 2.402-.999 2.414-.037.231.131.428.373.374a8.5 8.5 0 0 0 1.358-.418c-.491.933-.648 1.862-.548 3.069.021.251.295.473.539.309q.607-.406 1.214-.813c-.555 1.18-.955 2.914-.394 3.496.638.662 2.09.083 2.717-.431-.197 1.061-.356 2.148.088 3.275.275.7 2.021-.693 2.558-1.334.096 1.123.274 2.526 1.309 2.717 1.062.196 1.719-.884 2.047-1.894.498.854 1.22 1.769 2.171 1.454.899-.3 1.167-1.585 1.222-2.676.543.85 1.114 1.752 2.235 1.33 1.508-.566 1.111-2.548.846-4.001.724.732 1.64 1.461 2.42.754.835-.757.024-2.684-.438-3.806 1.138.12 2.538.033 2.798-1.305.277-1.424-1.057-1.78-2.139-2.216" style="fill:#b2bc35;fill-rule:nonzero" transform="translate(-23.028 -969.922)scale(5.13396)"/><path d="M48.942 230.385c-.185-.393-.693-.552-1.098-.475a1.3 1.3 0 0 0-.61-.49l-.107-.152a1.87 1.87 0 0 0-1.067-.522 1.6 1.6 0 0 0-.543.042l-.121-.041-.085-.011c-.197-.026-.422.041-.619.158a.66.66 0 0 0-.658-.206l-.11.03c-.647.175-.76 1.058-.217 1.418-.22.683-.231 1.548.472 1.867a.9.9 0 0 0 .487.069c.03.262.122.521.245.781-.305 1.054-.252 2.428.694 2.91.217.109.398.152.564.167-.051.387.047.832.331 1.039.16.116.418.097.581 0 .462-.28.477-.814.414-1.308-.035-.27-.188-.44-.372-.515.131-.398.182-.887.2-1.333.229-.027.447-.126.637-.295.392-.006.765-.199 1.001-.641.416-.781.345-1.723-.019-2.492" style="fill:#7c1221;fill-rule:nonzero" transform="translate(-23.028 -969.922)scale(5.13396)"/><path d="M55.919 222.977c-1.074-.377-3.385-.031-4.412.148.43-.41 1.752-2.101 1.098-2.396-1.073-.483-1.524-.074-2.581.451.135-.694.057-1.36.01-2.135-.068-1.103-2.836.991-3.827 1.855-.023-1.36-.501-3.192-1.713-3.694-.763-.315-.965 1.765-.975 2.582-.921-.735-2.305-1.611-3.143-1.06-.37.243-.377.612-.279 1.017.201.837.576 1.67.941 2.467-1.353-.333-2.754-.447-4.146-.446-.323.001-.549.446-.28.675a10.7 10.7 0 0 0 3.164 1.869c-.795.089-2.884.307-3.044.969-.211.876 1.988 1.751 3.282 1.351-1.197.854-2.488 1.611-3.518 2.662-.961.979 3.513-.081 5.044-.744a5.95 5.95 0 0 0-.931 2.638c-.032.293.345.465.573.328 1.259-.758 2.625-1.754 3.432-3.041.031 1.095.56 2.322.932 3.221.081.198.323.37.538.219a6.1 6.1 0 0 0 1.847-2.078 6.05 6.05 0 0 0 1.561 2.904c.176.183.531.154.65-.084.677-1.355 1.084-2.931.911-4.449 1.392.712 4.707-.015 4.728-.877.02-.809-.871-1.858-2.127-2.22a12.5 12.5 0 0 0 2.374-1.298c.329-.23.273-.7-.109-.834" style="fill:#e5e769;fill-rule:nonzero" transform="translate(-23.028 -969.922)scale(5.13396)"/><path d="M68.77 229.805c.069-.771-.038-1.444-.642-1.821a1.3 1.3 0 0 0-.082-.445c-.198-.537-.59-.839-1.159-.883a1.8 1.8 0 0 0-.465.037l-.192-.173c-.405-.238-.753-.272-1.1-.21-.48-.333-.853-.67-1.644-.451-.653.182-1.089.674-1.363 1.253a1 1 0 0 0-.224-.258c-.257-.212-.765-.264-.928.12a2.07 2.07 0 0 0-.162 1.255c.031.214.192.323.374.375-.127.454-.096.972.12 1.351.032.103.048.201.092.307.171.402.509.513.836.447-.036.378.084.771.337 1.113-.072.294-.232.595-.159.977.038.201.2.412.393.543.142 1.156.328 2.31.858 3.354.337.665 1.291.301 1.323-.358.017-.138.018-.275.021-.413.2-.054.373-.186.409-.408-.008.047.165-.551.076-.831l.213.008c.095-.036.175-.07.254-.104.396.273.915.083 1.189-.275.398-.518.567-.996.739-1.552 1.195-.613 1.705-1.754.886-2.958" style="fill:#7c1221;fill-rule:nonzero" transform="translate(-23.028 -969.922)scale(5.13396)"/><path d="M54.099 221.139c-.011-2.343 2.941-2.199 5.037-1.766a9 9 0 0 1-.762-.599c-.51-.449-1.822-1.509-1.541-2.363.467-1.416 3.264.041 4.897 1.007-.43-.966-.727-2.177.163-2.509.886-.33 1.864.862 2.382 1.841a7.3 7.3 0 0 1-.19-2.74c.081-.7.133-1.911.806-2.332 1.078-.675 1.725.848 2.074 2.151.349-.933.67-1.875.932-2.839a.434.434 0 0 1 .629-.256c1.213.701 1.388 1.93 1.088 3.106.573-.781 1.193-1.53 1.777-2.303.181-.24.601-.253.686.09.092.373.136.743.19 1.113.557-1.286 1.408-2.511 2.671-2.331 1.58.226.881 2.304.113 3.738.602-.196 3.831-.415 4.915-.32.29.025.392.373.147.541-1.009.689-2.054 1.254-3.137 1.766 1.246.164 2.334.617 3.466 1.387.123.083.156.297 0 .373-.787.38-1.578.72-2.416.974-.083.025-.981.216-1.464.332.09.042.183.087.339.137 1.226.394 2.524 1.589 2.976 2.786.035.092-.01.191-.069.26-.753.879-2.138.519-3.294.014.69.937 1.131 1.975 1.341 3.21.035.207-.141.485-.387.387-1.029-.411-1.964-.908-2.803-1.578.696 1.26 1.397 3.023.572 3.751-.602.532-1.284.095-1.864-.577a6 6 0 0 1-.043 1.129c-.115.797-.417 2.333-1.37 2.552-1.128.26-1.955-1.344-2.394-2.722a6 6 0 0 1-.375 1.293c-.252.607-.793 1.832-1.521 2.041-.49.141-.839-.138-1.048-.576-.444-.929-.604-2.112-.742-3.22-.818 1.017-2.08 2.054-3.149 1.53-.529-.26-.525-.747-.466-1.247.118-1.003.433-2.231.938-3.2-1.559.9-4.692 1.987-5.863.536-.196-.244-.197-.602.1-.776a18 18 0 0 1 1.24-.649c-2.089-.317-4.572-1.07-4.581-3.142" style="fill:#7c8535;fill-rule:nonzero" transform="translate(-23.028 -969.922)scale(5.13396)"/><path d="M52.884 222.543c.185-.392.694-.552 1.098-.475a1.3 1.3 0 0 1 .61-.49l.108-.152a1.86 1.86 0 0 1 1.067-.522c.183-.022.362.003.543.042l.121-.04.085-.012c.196-.026.421.041.618.158a.66.66 0 0 1 .658-.206l.11.03c.647.175.761 1.058.217 1.418.22.684.232 1.548-.472 1.867a.9.9 0 0 1-.486.069 2.6 2.6 0 0 1-.245.781c.305 1.054.252 2.428-.694 2.91a1.5 1.5 0 0 1-.565.167c.052.388-.046.832-.33 1.039-.161.116-.419.098-.581 0-.463-.279-.478-.814-.414-1.308.034-.27.188-.44.372-.514-.132-.399-.182-.888-.201-1.334a1.16 1.16 0 0 1-.636-.295c-.392-.006-.765-.198-1.002-.641-.416-.781-.344-1.722.019-2.492" style="fill:#7c1221;fill-rule:nonzero" transform="translate(-23.028 -969.922)scale(5.13396)"/><path d="M63.942 215.306a1.14 1.14 0 0 0 .643-.441c.079-.112.071-.291 0-.403-.332-.528-.873-.839-1.464-.964.276-.134.525-.331.792-.578.162-.15.14-.483-.075-.581-.704-.321-1.4-.477-2.106-.465.527-.497.907-1.085.52-1.587-.37-.48-1.139-.447-1.911-.251.274-.369.361-.751-.05-1.063-.653-.496-1.81.076-2.709.708.547-.947 1.032-2.299.094-2.604-.663-.216-1.286.127-1.812.638.2-.927.19-1.793-.63-1.679-.729.1-1.502.945-1.908 1.837-.158-.61-.488-1.195-.848-1.672-.081-.107-.205-.183-.345-.14-.637.196-.973.651-1.13 1.195a19 19 0 0 0-.802-1.695c-.09-.165-.392-.192-.473 0-.297.699-.523 1.588-.483 2.425-.655-.703-1.623-1.562-2.131-.95-.455.547.26 1.534.888 2.253-.906-.141-1.804.013-2.68.422-.187.088-.151.353 0 .45.425.272.859.519 1.302.751-.874.006-1.841.171-1.831.926.004.318.192.497.458.636.484.251 1.222.344 1.889.393-1.222.406-2.182 1.198-2.946 2.302-.142.205.05.454.266.465a9.7 9.7 0 0 0 1.922-.095c-.686.659-1.383 1.533-.997 2.185.319.538.938.392 1.502.112-.272.605-.475 1.253-.407 1.859.016.148.092.28.245.322.628.172 1.326-.401 1.838-.914-.255.858-.162 1.823.139 2.669.078.218.316.276.49.129.448-.375.83-.787 1.161-1.238.004.372.035.746.115 1.122.108.508.304 1.59.886 1.79.778.267 1.317-1.306 1.564-2.444.205 1.04.683 2.21 1.563 2.491.84.268 1.07-.452 1.114-1.247.342.516.771.932 1.374.861.709-.082 1.091-.621 1.201-1.236.199-.03.387-.099.505-.215.204-.201.283-.475.301-.754.475.453 1.058.697 1.696.349.994-.54.593-1.551.163-2.459.55.525 1.136 1.042 1.718 1.27.336.132.668.164.956-.104.662-.617.142-1.46-.437-2.186.882.208 1.854.158 2.2-.627.346-.787-.451-1.47-1.33-1.968" style="fill:#8fa23b;fill-rule:nonzero" transform="translate(-23.028 -969.922)scale(5.13396)"/><path d="M61.261 214.273c1.018-.081 3.559.187 4.151.562-.255.594-.86.936-1.523 1.097.384.752.785 1.883.587 2.736-.592-.004-1.559-.577-1.819-.814-.298.429-1.046.786-1.876.987-.049-1.353.285-3.868.48-4.568" style="fill:#8fa23b;fill-rule:nonzero" transform="translate(-23.028 -969.922)scale(5.13396)"/><path d="M70.016 209.509c.839-.363 1.695-.929 1.553-1.723-.155-.865-1.247-.783-2.216-.535l.84-.936c.158-.175.143-.463-.076-.587-.797-.452-1.569-.149-2.276.35-.817.577-1.693 1.316-2.273 2.172-.162-1.396-.699-2.701-1.463-3.886-.127-.196-.442-.171-.507.067a7.6 7.6 0 0 0-.188 3.052 3.3 3.3 0 0 0-.58-.381c-.416-.21-1.283-.567-1.722-.265-.358.247-.252.593-.056.914.424.697 1.122 1.52 1.808 2.144-.517-.189-1.058-.242-1.657-.166-.52.064-1.348.197-1.623.725-.208.4-.026.67.337.836.444.202 1.066.197 1.543.271l.863.133c-1.357.806-2.574 1.861-2.595 3.582-.003.26.28.398.497.285 1.047-.547 2.298-1.13 3.325-1.872a8 8 0 0 0-.404 2.512c-.002.174.161.367.347.347a3.52 3.52 0 0 0 3.012-2.492q.386 1.006.778 2.007c.095.243.488.377.625.082.504-1.079.835-2.236.844-3.405.301.711.746 1.365 1.244 1.97.189.231.594.098.659-.174a5.1 5.1 0 0 0-.239-3.152c.371.228.72.492 1.058.801.17.155.456.181.624 0 1.074-1.165-.637-2.167-2.082-2.676M57.07 234.515c-1.017-.082-3.559.186-4.151.561.256.593.861.936 1.524 1.097-.384.752-.785 1.884-.587 2.736.591-.005 1.559-.577 1.819-.813.297.427 1.045.785 1.876.986.049-1.353-.285-3.868-.481-4.567M73.321 216.564c-1.018-.081-3.559.187-4.151.562.255.594.86.936 1.523 1.097-.384.752-.785 1.884-.587 2.736.592-.004 1.559-.577 1.819-.813.298.428 1.046.785 1.876.986.049-1.353-.285-3.867-.48-4.568M53.396 211.522c-1.018-.082-3.559.187-4.151.562.256.593.861.935 1.524 1.097-.385.752-.786 1.883-.588 2.736.592-.005 1.559-.577 1.82-.814.297.429 1.045.785 1.875.987.049-1.353-.285-3.868-.48-4.568M65.705 222.582c1.017-.082 3.559.187 4.151.562-.256.593-.861.935-1.524 1.096.384.752.785 1.884.587 2.737-.591-.005-1.559-.578-1.819-.815-.297.429-1.045.786-1.875.987-.049-1.353.284-3.868.48-4.567" style="fill:#e5e769;fill-rule:nonzero" transform="translate(-23.028 -969.922)scale(5.13396)"/><path d="M46.706 223.897c1.017-.081 3.559.187 4.15.562-.255.594-.86.936-1.523 1.097.384.752.785 1.883.587 2.736-.591-.005-1.559-.577-1.819-.813-.297.428-1.045.785-1.876.986-.048-1.353.285-3.868.481-4.568" style="fill:#8fa23b;fill-rule:nonzero" transform="translate(-23.028 -969.922)scale(5.13396)"/><path d="m43.515 300.731-1.857 1.073v-70.452l1.857-1.073z" style="fill:#772c2d;fill-rule:nonzero" transform="translate(-23.028 -969.922)scale(5.13396)"/><path d="m39.801 300.731 1.857 1.073v-70.452l-1.857-1.073z" style="fill:#8a3a3b;fill-rule:nonzero" transform="translate(-23.028 -969.922)scale(5.13396)"/><path d="m43.515 230.279-1.857-1.072-1.857 1.072 1.857 1.073z" style="fill:#a54d4d;fill-rule:nonzero" transform="translate(-23.028 -969.922)scale(5.13396)"/><path d="M99.015 244.623c-.508-3.243-.388-6.484.383-9.92l5.8.137s1.68 3.656 2.112 6.385-.198 4.028-1.285 5.321-4.955-.432-5.099-.527c-.036-.025-.796-.581-1.911-1.396" style="fill:#fbc3b3;fill-rule:nonzero" transform="translate(-23.028 -969.922)scale(5.13396)"/><path d="M98.561 299.069s-3.552-1.484-5.765-1.58c-2.212-.094-3.006 1.818-.58 3.832 2.427 2.015 3.945 2.461 5.931 3.278 1.79.735 2.423.778 3.86-.133 1.959-1.241.428-4.508.379-4.502z" style="fill:#461718;fill-rule:nonzero" transform="translate(-23.028 -969.922)scale(5.13396)"/><path d="M91.683 300.11s-.414 1.731-1.402 3.701-1.531.123-3.424.849c-1.893.727-.121 2.694 1.551 3.874s5.915 0 6.655-.655c.74-.656 2.081-5.769 2.754-6.788.674-1.021-.876-3.108-.876-3.108z" style="fill:#461718;fill-rule:nonzero" transform="translate(-23.028 -969.922)scale(5.13396)"/><path d="M103.786 253.389c-.817-.66-6.315-.355-7.952-.389-.027 8.22-1 26.524-1.031 29.433-.046 4.203-.205 15.621-.192 15.895 1.846 2.99 6.881 2.562 7.831 1.492-.165-1.863.815-15.684.969-22.464.14-6.226 3.937-21.094.375-23.967" style="fill:#632828;fill-rule:nonzero" transform="translate(-23.028 -969.922)scale(5.13396)"/><path d="M91.694 277.974c.723-1.069 4.625-6.167 6.293-11.784 1.485-4.998.791-10.408.803-13.749-4.372.155-9.643 1.569-9.643 1.569s-3.922 11.252-5.761 19.756c-.838 3.873-.774 5.009.201 7.927 3.019 9.034 6.574 20.595 6.574 20.595s1.404-1.593 3.229-2.059c2.107-.539 4.199-1.165 5.171-1.16-.348-3.512-6.195-18.875-6.867-21.095" style="fill:#632828;fill-rule:nonzero" transform="translate(-23.028 -969.922)scale(5.13396)"/><path d="M99.931 240.573c.193-3.106.673-4.921.673-4.921l-2.077-6.601s2.91-1.475 4.877.869c.819.975 2.32 3.905 3.628 6.637-1.007 1.752-3.748 4.127-7.101 4.016" style="fill:#9e2038;fill-rule:nonzero" transform="translate(-23.028 -969.922)scale(5.13396)"/><path d="M94.134 216.109c1.555-1.08 4.546-.742 5.844 1.999.719 1.517-.297 5.599-.457 8.465-.13 2.311.645 3.646.645 3.646l-1.983.817c-1.982.818-4.049 0-4.049 0l.064-3.525s-2.134-.317-2.508-.659c-.899-.825-1.375-3.277-.959-6.439.621-4.708 2.83-3.906 3.403-4.304" style="fill:#fbc3b3;fill-rule:nonzero" transform="translate(-23.028 -969.922)scale(5.13396)"/><path d="M95.704 255.845c3.124.258 7.158-.442 9.235-3.011a30 30 0 0 1-.059-2.621c.126-5.836.359-10.083.065-12.382-.421-3.28-3.581-8.78-3.581-8.78l-7.227 1.074s-2.381.992-3.126 2.621c-.744 1.63-.894 2.656-.996 8.4-.054 3.032.327 7.462-.116 10.715 1.766 2.33 2.353 3.7 5.805 3.984" style="fill:#c73956;fill-rule:nonzero" transform="translate(-23.028 -969.922)scale(5.13396)"/><path d="M94.169 229.124s2.888.851 4.592-.478c2.411-1.879 2.676.765 2.676.765s-1.019 1.419-3.034 2.06-3.835.519-5.818-.459c-.013-1.304 1.584-1.888 1.584-1.888" style="fill:#9e2038;fill-rule:nonzero" transform="translate(-23.028 -969.922)scale(5.13396)"/><path d="M92.213 221.657c-.236-.789-.775-2.624-.911-3.363-.157-.857-.203-2.132.969-3.352 1.173-1.219 5.238-1.611 6.709-.761 1.471.851 4.599 2.405 3.507 7.476-.882 4.098-1.74 4.558-2.978 5.521-1.082.841-2.987 1.05-2.987 1.05s-1.062-.769-1.253-2.321c-.06-.489 0-1.971 0-1.971s1.084-2.144.244-2.908c-.894-.813-1.808.48-2.018 1.003-.732 1.833-1.459 2.694-1.282-.374" style="fill:#633416;fill-rule:nonzero" transform="translate(-23.028 -969.922)scale(5.13396)"/><path d="M94.706 213.515c-1.839.049-5.096-.478-6.371 3.681-1.273 4.16 5.336 9.109 8.675 10.45 3.368 1.353 7.427-1.277 6.616-6.329-.782-4.873-5.478-7.897-8.92-7.802" style="fill:#d4c600;fill-rule:nonzero" transform="translate(-23.028 -969.922)scale(5.13396)"/><path d="M93.39 215.915s-1.589 3.381 2.123 5.793c3.711 2.413 6.628 1.152 7.267-.407.951-2.322 1.564-4.583-1.343-6.905s-5.96-1.542-8.047 1.519" style="fill:#776d16;fill-rule:nonzero" transform="translate(-23.028 -969.922)scale(5.13396)"/><path d="M105.273 260.511c.595-3.398.033-10.04.033-10.04s-4.829 3.438-8.032 2.722c-2.493-.557-4.709-4.578-5.26-7.087-.551-2.507-.794-6.3-.794-6.3l-1.541-.412s-.005 7.37-.257 10.325c-.276 3.24-1.972 8.93-2.424 10.848 4.002 3.145 17.31 5.454 18.275-.056" style="fill:#632828;fill-rule:nonzero" transform="translate(-23.028 -969.922)scale(5.13396)"/><path d="M91.606 231.868s4.347.475 6.17 7.526c1.963 7.59 2.182 13.565 2.182 13.565l1.479-.572s-.818-11.336-2.91-15.938c-2.09-4.602-5.942-5.437-5.942-5.437zM104.205 233.497c-.778-2.383-1.989-3.77-2.871-4.519q.003.293-.079.571c1.057 1.952 2.476 6.293 2.476 14.602v7.079l1.575-.759s.239-12.869-1.101-16.974" style="fill:#632828;fill-rule:nonzero" transform="translate(-23.028 -969.922)scale(5.13396)"/><path d="M89.226 251.23s4.08 3.014 8.636 3.014 7.444-2.557 7.444-2.557l.016-1.853s-4.769 2.469-7.236 2.288c-5.949-.435-8.569-2.993-8.569-2.993zM98.606 263.77a73 73 0 0 1-.542 2.148c-.87 3.228-2.866 6.646-2.866 6.646l-.446 14.057 2.741 7.114s.051-8.742.127-10.367c.367-7.818 1.893-12.915 2.338-16.1.206-1.47.122-3.215-.027-4.673q-.61.651-1.325 1.175M88.537 254.566s.642 1.648 1.362 2.778a48 48 0 0 1 1.566 2.617l-.493 1.326s-.789-1.043-1.746-2.552c-.843-1.33-1.157-2.277-1.157-2.277z" style="fill:#461718;fill-rule:nonzero" transform="translate(-23.028 -969.922)scale(5.13396)"/><path d="M85.449 237.413c-1.799 1.217-3.915 2.222-5.013 3.287-2.003.253-8.906.899-10.277.889-.557-.004-2.398-.742-4.028-.543-1.481.181-4.011-1.082-4.2-.006-.188 1.075 1.021 2.461 1.832 2.727 1.283.419 3.97.401 5.751.048 2.199.078 4.581.697 5.958.873 1.867.238 5.283.479 7.551-.203 1.774-.533 7.014-3.712 7.014-3.712l-1.692-5.39z" style="fill:#fbc3b3;fill-rule:nonzero" transform="translate(-23.028 -969.922)scale(5.13396)"/><path d="M88.532 242.646c-2.538-.828-4.799-2.591-4.733-5.026 3.737-3.104 6.683-7.514 9.716-5.507 2.791 1.847 1.386 5.355-.758 7.51-.605.608-1.978 2.121-4.225 3.023" style="fill:#9e2038;fill-rule:nonzero" transform="translate(-23.028 -969.922)scale(5.13396)"/><path d="M68.259 240.08c-.05-.749-.777-1.159-1.492-1.23a1.16 1.16 0 0 0-.573-.835 1.09 1.09 0 0 0-1.063.003c-.577-.202-1.373-.099-1.755.36-.241.289-.235.569-.109.81-.696.181-1.403.501-1.742 1.058-.282.464-.135.68.127.849-.654.465-1.248 1.209-.896 1.981.11.243.294.408.503.495a.8.8 0 0 0 .104.71l.096.096c-.199.594-.17 1.202.05 1.872.069.211.387.354.551.146.295-.374.45-.791.784-1.148.099-.106.176-.214.255-.321a.46.46 0 0 0 .341-.136l.127-.145a.93.93 0 0 0 .643.056c.418-.116.816-.491 1.034-.857.187-.315.203-.628.184-.949a1.61 1.61 0 0 0 1.478-1.387c.711-.223 1.396-.782 1.353-1.428" style="fill:#7c1221;fill-rule:nonzero" transform="translate(-23.028 -969.922)scale(5.13396)"/><path d="M65.765 243.503s-.832-.312-1.446-.918c-.615-.607-.168-.982.526-.617.693.364 2.034.112 2.623.548.59.435-1.703.987-1.703.987" style="fill:#fbc3b3;fill-rule:nonzero" transform="translate(-23.028 -969.922)scale(5.13396)"/><path d="M53.467 300.513H79.23l-.906 13.069c0 3.723-5.362 6.74-11.975 6.74-6.615 0-11.976-3.017-11.976-6.74z" style="fill:#8e4d4c;fill-rule:nonzero" transform="translate(-23.028 -969.922)scale(5.13396)"/><path d="M66.349 293.263c7.114 0 12.881 3.246 12.881 7.25s-5.767 7.25-12.881 7.25c-7.115 0-12.882-3.246-12.882-7.25s5.767-7.25 12.882-7.25" style="fill:#a65b5c;fill-rule:nonzero" transform="translate(-23.028 -969.922)scale(5.13396)"/><path d="M77.182 301.728c.176-.441.276-.899.276-1.371 0-3.453-4.974-6.253-11.109-6.253-6.136 0-11.11 2.8-11.11 6.253 0 .554.14 1.087.38 1.599.378.806 1.038 1.546 1.91 2.19a4.5 4.5 0 0 1 1.732-.819c.272-.891 2.082-1.648 2.953-1.003.446-.909 2.519-1.271 3.228-.583.542-.721 2.748-.622 3.308.102.824-.531 2.699.033 3.094 1.152.955-.132 1.778.691 2.002 1.535.215-.028.453-.005.697.04 1.28-.789 2.209-1.761 2.639-2.842" style="fill:#8e4d4c;fill-rule:nonzero" transform="translate(-23.028 -969.922)scale(5.13396)"/><path d="M73.846 304.53c-.224-.844-1.047-1.667-2.002-1.535-.395-1.119-2.27-1.683-3.094-1.152-.56-.724-2.766-.823-3.308-.102-.709-.688-2.782-.326-3.228.583-.871-.645-2.681.112-2.953 1.003a4.5 4.5 0 0 0-1.732.819c2.027 1.497 5.218 2.464 8.82 2.464 3.249 0 6.165-.788 8.194-2.04a2.3 2.3 0 0 0-.697-.04" style="fill:#9e2038;fill-rule:nonzero" transform="translate(-23.028 -969.922)scale(5.13396)"/><path d="M66.355 310.455c6.169 0 11.508-2.957 12.597-6.252-.013.374-.068.688-.068.977 0 3.88-5.634 6.992-12.528 6.992s-12.551-3.22-12.551-7.1c0-.287-.019-.52-.06-.869 1.285 3.591 6.444 6.252 12.61 6.252" style="fill:#461718;fill-rule:nonzero" transform="translate(-23.028 -969.922)scale(5.13396)"/><path d="M66.358 315.898c5.995 0 11.185-2.874 12.242-6.075-.013.363-.066.668-.066.948 0 3.771-5.475 6.795-12.174 6.795s-12.197-3.128-12.197-6.899c0-.278-.018-.506-.058-.844 1.249 3.489 6.262 6.075 12.253 6.075" style="fill:#461718;fill-rule:nonzero" transform="translate(-23.028 -969.922)scale(5.13396)"/><path d="M62.931 304.71c-.34-.105-.981.366-.72.777.284.446 1.015.011.971-.447-.014-.15-.098-.283-.251-.33" style="fill:#c73956;fill-rule:nonzero" transform="translate(-23.028 -969.922)scale(5.13396)"/><path d="M61.761 303.412a.336.336 0 0 1-.344-.285c-.026-.139.014-.486.106-.594.133-.154.277-.218.407-.218.349 0 .602.455.283.849-.138.17-.306.248-.452.248M72.232 304.303c-.035-.214-.076-.362-.076-.362s-.327.064-.757.235c-.222-.372.019-.764.343-.764.131 0 .274.064.407.218.093.108.132.456.106.595a.4.4 0 0 1-.023.078" style="fill:#7c1229;fill-rule:nonzero" transform="translate(-23.028 -969.922)scale(5.13396)"/><path d="M65.658 302.407c.39-.05.718.001 1.019.118 0-.567-.381-1.552-1.075-2.17-.83-.738-1.986-.963-1.986-.963s-.136.49-.122.981a18 18 0 0 0-1.665-.406s.326 1.027.626 1.284c-.836.239-1.2.75-1.2.75s.574.985 1.46 1.263c.2-.247.458-.426.828-.483.298-.046.603-.01.87.102.327-.292.807-.42 1.245-.476" style="fill:#afc442;fill-rule:nonzero" transform="translate(-23.028 -969.922)scale(5.13396)"/><path d="M62.626 300.502s.493.442 1.135.988a10.4 10.4 0 0 1 1.117 1.112l.273-.094s-1.185-1.543-2.525-2.006M63.616 299.392s.375.327 1.028 1.041c.653.713 1.183 1.96 1.183 1.96s.534.016.85.132c.11-.545-.116-1.361-.766-2.023s-2.295-1.11-2.295-1.11M61.766 301.932c.036 0 .58-.084 1.197.145.617.23.847.448.847.448s-.714-.122-1.022-.218a25 25 0 0 1-1.022-.375" style="fill:#8fa23b;fill-rule:nonzero" transform="translate(-23.028 -969.922)scale(5.13396)"/><path d="M72.994 305.357c.279-.134.526-.204.79-.361.084-.22.159-.48.159-.48s-.614.108-1.664.407c.014-.491-.123-.982-.123-.982s-1.155.226-1.986.964c-.469.417-.781.997-.943 1.508a11.3 11.3 0 0 0 3.767-1.056" style="fill:#afc442;fill-rule:nonzero" transform="translate(-23.028 -969.922)scale(5.13396)"/><path d="M70.278 306.256c.215-.406.515-.909.85-1.275.653-.712 1.028-1.04 1.028-1.04s-1.645.449-2.295 1.111a2.7 2.7 0 0 0-.74 1.375c.386-.034.772-.095 1.157-.171" style="fill:#8fa23b;fill-rule:nonzero" transform="translate(-23.028 -969.922)scale(5.13396)"/><path d="M69.603 301.609s.482.435.579.74c.096.304.08.578.08.578s.21-.281.587-.422.836-.156.836-.156-.074.6-.283.838-.758.639-.758.639-.349-.214-.663-.321l-.246-.01c-.075-.259-.191-.676-.212-.861-.032-.277.08-1.025.08-1.025" style="fill:#afc442;fill-rule:nonzero" transform="translate(-23.028 -969.922)scale(5.13396)"/><path d="M69.121 302.541c-.015-.398.482-.932.482-.932s-.112.748-.08 1.025c.021.185.137.602.212.861-.163.025-.309.09-.309.09s-.29-.646-.305-1.044" style="fill:#8fa23b;fill-rule:nonzero" transform="translate(-23.028 -969.922)scale(5.13396)"/><path d="M68.567 306.146c-.147 0-.315-.078-.453-.248-.319-.395-.066-.849.283-.849.131 0 .275.063.407.218.093.107.133.455.107.594a.34.34 0 0 1-.344.285M64.342 305.049c-.147 0-.315-.078-.453-.248-.319-.395-.067-.847.281-.847.127 0 .267.06.396.204.088-.117.353-.32.491-.329l.054-.002c.69 0 .653.874-.025.937l-.065.003a.6.6 0 0 1-.331-.097l-.005.094a.336.336 0 0 1-.343.285" style="fill:#7c1229;fill-rule:nonzero" transform="translate(-23.028 -969.922)scale(5.13396)"/><path d="M66.174 302.235c-.339-.103-.98.367-.719.779.283.445 1.014.01.971-.448-.014-.15-.098-.283-.252-.331M60.893 302.879c-.34-.105-.981.366-.72.777.284.446 1.015.011.971-.447-.014-.15-.098-.283-.251-.33M67.986 301.222c.339-.105.98.366.719.778-.283.445-1.015.01-.971-.447.014-.152.098-.283.252-.331M68.434 303.681c-.446-.403-.754.11-.695.562.037.286.396.482.554.432.365-.117.48-.689.141-.994M66.161 305.169c-.446-.402-.754.11-.695.562.037.287.395.483.554.432.365-.117.48-.688.141-.994" style="fill:#c73956;fill-rule:nonzero" transform="translate(-23.028 -969.922)scale(5.13396)"/><path d="M60.112 303.245c-.446-.402-.754.11-.695.563.038.286.396.482.554.431.365-.117.48-.688.141-.994" style="fill:#c73956;fill-rule:nonzero" transform="translate(-23.028 -969.922)scale(5.13396)"/><path d="M142.043 151.482s1.41.131 2.439.999c1.029.869 1.894 1.555 1.894 1.555s-.871 1.095-2.43.814-2.969-1.589-3.007-2.383 1.104-.985 1.104-.985" style="fill:#062f1d;fill-rule:nonzero" transform="matrix(-4.69668 0 0 4.69668 698.593 -572.514)"/><path d="M144.674 151.214s-.424 1.084-3.966 1.267c-3.541.183-1.653-6.58-1.653-6.58z" style="fill:#062f1d;fill-rule:nonzero" transform="matrix(-4.69668 0 0 4.69668 698.593 -572.514)"/><path d="M135.988 211.662c2.781-.524 5.566 1.962.343 3.6-3.887 1.22-4.929-.738-4.929-.738s1.806-2.339 4.586-2.862" style="fill:#461718;fill-rule:nonzero" transform="matrix(-4.69668 0 0 4.69668 698.593 -572.514)"/><path d="M128.08 166.072c.431-3.036.972-6.573 3.388-9.584 2.923-3.644 4.372-2.199 5.309-1.798 1.281.548 2.221-.618 2.765 2.18 1.013 5.196-6.077 11.098-6.727 13.488-.214.79-2.575 3.467-2.869 3.3-.925-.525-2.239-1.404-3.022-2.387-.308-.387-.375-.914-.22-1.383.466-1.417 1.237-2.821 1.376-3.816" style="fill:#9e2038;fill-rule:nonzero" transform="matrix(-4.69668 0 0 4.69668 698.593 -572.514)"/><path d="M133.649 222.948c-.016-3.126-.641-12.581-1.058-14.937-.443-2.499-.477-3.397-.507-5.428-.029-2.031-.749-6.568-.749-6.568s7.778 3.843 7.299 5.117.71 6.687-.107 10.948c-.816 4.261-1.19 9.126-.422 11.589.769 2.465.048 4.688-.923 5.204-.972.517-1.152.838-2.873 2.485s-3.989-.119-3.275-1.248 2.631-4.036 2.615-7.162" style="fill:#ef8b78;fill-rule:nonzero" transform="matrix(-4.69668 0 0 4.69668 698.593 -572.514)"/><path d="M136.56 153.472c.554.098.938.194.938.194s.457 2.401.156 3.222c-.957 2.608.532 3.349 1.454 2.626.964-.756 3.698-2.935 3.698-2.935s4.896 3.355 5.298 4.955c1.326 5.282-4.038 8.299-4.038 8.299-.143 2.782.923 9.519.923 9.519s-3.157 3.145-7.61 3.342c-3.815.169-6.236-3.248-6.236-3.248s.306-4.792.387-6.341c.071-1.35.106-3.836-.452-5.142-.498-1.163-.841-1.977-1.119-2.916-.935-3.159 2.39-6.214 3.246-7.192.887-1.014 2.523-3.462 3.355-4.383" style="fill:#c73956;fill-rule:nonzero" transform="matrix(-4.69668 0 0 4.69668 698.593 -572.514)"/><path d="M139.846 185.112c.458 3.467.081 22.261.431 23.076s-3.051 9.78-3.051 9.78-4.969-.123-4.969-2.539c0-3.552-.456-7.364-.745-9.304-2.049-13.78-1.251-23.824-1.251-23.824s9.126-.655 9.585 2.811" style="fill:#00af50;fill-rule:nonzero" transform="matrix(-4.69668 0 0 4.69668 698.593 -572.514)"/><path d="M138.046 187.219c-.329 5.144.19 7.449.177 13.055s-.338 14.988-.338 14.988l-1.002.4s-.449-3.965-.406-7.378c.065-5.005-1.064-12.008-1.142-15.349-.13-5.622 2.875-8.28 2.711-5.716" style="fill:#062f1d;fill-rule:nonzero" transform="matrix(-4.69668 0 0 4.69668 698.593 -572.514)"/><path d="M129.463 231.254c.755-.434 1.992-2.324 2.794-5.207.803-2.882.321-3.615.218-5.572s-1.073-5.951-1.073-5.951c2.441 2.091 7.827-1.504 7.827-1.504s-1.124 10.649-.407 11.811c.375.606.567 2.611.347 3.483-.144.574-1.954 1.16-2.378 1.57s-1.104 1.848-1.93 2.601c-.827.751-2.756 1.446-3.636 1.662s-2.344-.366-2.902-1.047c-.641-.782.384-1.412 1.14-1.846" style="fill:#461718;fill-rule:nonzero" transform="matrix(-4.69668 0 0 4.69668 698.593 -572.514)"/><path d="M142.017 215.5c2.78-.523 5.565 1.962.342 3.601-3.886 1.219-4.928-.739-4.928-.739s1.805-2.339 4.586-2.862" style="fill:#461718;fill-rule:nonzero" transform="matrix(-4.69668 0 0 4.69668 698.593 -572.514)"/><path d="M146.376 180.426c1.422 2.597 1.87 4.788 1.938 7.846.153 6.782-1.685 14.352-1.938 16.512-.367 3.135-1.295 7.478-1.663 12.204-.367 4.726-5.404 5.456-6.362 1.171-.825-3.686-.746-5.506-.92-8.829-.167-3.162 0-23.941 0-23.941s6.505-9.417 8.945-4.963" style="fill:#00af50;fill-rule:nonzero" transform="matrix(-4.69668 0 0 4.69668 698.593 -572.514)"/><path d="M135.492 235.092c.755-.434 1.992-2.324 2.794-5.207s.32-3.615.217-5.572c-.103-1.958-1.072-5.951-1.072-5.951 2.441 2.091 7.827-1.505 7.827-1.505s-1.125 10.651-.407 11.812c.375.606.567 2.611.347 3.483-.144.574-1.954 1.16-2.379 1.57-.424.41-1.103 1.848-1.93 2.6-.826.753-2.755 1.447-3.635 1.663s-2.344-.366-2.902-1.047c-.642-.782.385-1.413 1.14-1.846" style="fill:#632828;fill-rule:nonzero" transform="matrix(-4.69668 0 0 4.69668 698.593 -572.514)"/><path d="M137.087 155.557s-1.415 1.992-2.577 3.976c-.505.862-1.557 2.8-1.557 2.8l-1.403-1.006 4.197-6.176z" style="fill:#00af50;fill-rule:nonzero" transform="matrix(-4.69668 0 0 4.69668 698.593 -572.514)"/><path d="M140.424 164.799c-.135 1.643.046 3.857.233 5.598.366 3.414 1.645 4.214 3.289 4.474.924.146 1.91-.301 1.91-.301s.027 4.257.773 7.682c-2.036 1.742-5.616 2.939-8.583 2.989-4.056.069-4.35-.863-7.785-2.94.205-3.469.311-6.69.14-8.471-.303-3.152-.491-5.399-.853-7.335-.375-2.012.506-2.871 2.194-5.461 2.22 1.612 4.995 2.437 8.682 3.765" style="fill:#00af50;fill-rule:nonzero" transform="matrix(-4.69668 0 0 4.69668 698.593 -572.514)"/><path d="M136.742 155.682c.068-.975.468-1.645.468-1.645l4.938-5.855s-.331 2.836-.122 5.143c.132 1.449.582 3.816.582 3.816s-2.165 1.649-3.191 2.626c-.477.454-2.33 1.317-2.898 1.432-.127-.686.062-2.662.24-2.941.223-.672-.075-1.753-.017-2.576" style="fill:#f8ab97;fill-rule:nonzero" transform="matrix(-4.69668 0 0 4.69668 698.593 -572.514)"/><path d="M142.822 156.488s1.386.432.975 1.807c-.543 1.818-3.373 6.504-3.373 6.504l-1.735-.616s2.614-3.974 3.188-5.195c.525-1.117.945-2.5.945-2.5" style="fill:#00af50;fill-rule:nonzero" transform="matrix(-4.69668 0 0 4.69668 698.593 -572.514)"/><path d="M142.49 186.571c1.415 1.487 3.301 2.63 3.301 2.63l-.686 1.2s-1.058-.458-3.173-2.515-2.743-3.715-2.743-3.715l.915-.885s.971 1.799 2.386 3.285" style="fill:#062f1d;fill-rule:nonzero" transform="matrix(-4.69668 0 0 4.69668 698.593 -572.514)"/><path d="M137.35 155.961s-1.193 4.286-.831 5.238l-2.343-2.077 2.057-3.429z" style="fill:#9e2038;fill-rule:nonzero" transform="matrix(-4.69668 0 0 4.69668 698.593 -572.514)"/><path d="M140.019 144.211c1.45.997 2.996 4.023 2.298 6.801-.62 2.467-3.337 4.729-4.558 5.339-2.179 1.088-6.639-4.477-5.233-9.176 1.343-4.48 5.626-4.247 7.493-2.964" style="fill:#fbc3b3;fill-rule:nonzero" transform="matrix(-4.69668 0 0 4.69668 698.593 -572.514)"/><path d="M134.474 144.611c2.323-2.355 2.72-3.874 5.353-2.936 1.313.468 2.544 2.151 2.899 3.677.383 1.643.715 4.24-.766 6.644-.714-2.323-2.948-.665-4.811-.783-3.836-.242-5.419-2.201-5.419-2.201-.122-2.517 1.347-2.985 2.744-4.401" style="fill:#461718;fill-rule:nonzero" transform="matrix(-4.69668 0 0 4.69668 698.593 -572.514)"/><path d="M140.839 150.014c.943-.457 1.065 1.525.426 2.253s-1.511-.639-1.511-.639.142-1.158 1.085-1.614" style="fill:#fbc3b3;fill-rule:nonzero" transform="matrix(-4.69668 0 0 4.69668 698.593 -572.514)"/><path d="M137.717 167.17c-.559 2.212-1.186 5.071-3.612 4.427-2.675-.711-2.824-5.432-2.528-6.932 0 0 3 1.795 6.14 2.505" style="fill:#062f1d;fill-rule:nonzero" transform="matrix(-4.69668 0 0 4.69668 698.593 -572.514)"/><path d="M136.176 141.767c5.141-2.257 7.154 2.747 7.77 4.762.482 1.576.728 4.685.728 4.685s-9.39.028-13.206-4.519c0 0 1.224-3.4 4.708-4.928" style="fill:#00af50;fill-rule:nonzero" transform="matrix(-4.69668 0 0 4.69668 698.593 -572.514)"/><path d="m143.052 157.122-2.703 4.629-3.83-.552 5.879-5.235zM142.941 162.427c.689-1.646 2.568-3.73 3.392-3.129 1.124.821 2.501 2.583 2.404 5.433-.181 5.29-.729 15.101-3.756 17.521-.64.512-3.463.837-3.712.608-.783-.719-1.563-.767-1.542-1.26.106-2.506 1.193-3.219 1.554-4.157 1.102-2.861.136-11.378 1.66-15.016" style="fill:#9e2038;fill-rule:nonzero" transform="matrix(-4.69668 0 0 4.69668 698.593 -572.514)"/><path d="M114.367 173.035h25.248l-.888 12.809c0 3.648-5.254 6.605-11.736 6.605s-11.736-2.957-11.736-6.605z" style="fill:#8e4d4c;fill-rule:nonzero" transform="matrix(-4.69668 0 0 4.69668 698.593 -572.514)"/><path d="M126.991 165.93c6.972 0 12.624 3.181 12.624 7.105s-5.652 7.105-12.624 7.105-12.624-3.181-12.624-7.105 5.652-7.105 12.624-7.105" style="fill:#a65b5c;fill-rule:nonzero" transform="matrix(-4.69668 0 0 4.69668 698.593 -572.514)"/><path d="M134.338 171.36c-.219-.827-1.026-1.633-1.962-1.504-.386-1.097-2.225-1.65-3.033-1.129-.547-.71-2.709-.807-3.24-.1-.694-.674-2.727-.319-3.164.572-.854-.634-2.627.109-2.894.982-2.033.45-3.488 2.312-3.569 4.268a3.7 3.7 0 0 1-.373-1.566c0-3.384 4.875-6.128 10.888-6.128s10.888 2.744 10.888 6.128c0 .463-.099.911-.271 1.344-.076-1.906-2.034-3.029-3.27-2.867" style="fill:#8e4d4c;fill-rule:nonzero" transform="matrix(-4.69668 0 0 4.69668 698.593 -572.514)"/><path d="M126.991 179.011c-5.05 0-9.284-1.937-10.515-4.562.081-1.956 1.536-3.818 3.569-4.268.267-.873 2.04-1.616 2.894-.982.437-.891 2.47-1.246 3.164-.572.531-.707 2.693-.61 3.24.1.808-.521 2.647.032 3.033 1.129.936-.129 1.743.677 1.962 1.504 1.236-.162 3.194.961 3.27 2.867-1.089 2.737-5.424 4.784-10.617 4.784" style="fill:#9e2038;fill-rule:nonzero" transform="matrix(-4.69668 0 0 4.69668 698.593 -572.514)"/><path d="M126.997 182.779c6.046 0 11.279-2.898 12.346-6.127-.013.367-.067.674-.067.957 0 3.803-5.522 6.852-12.277 6.852-6.756 0-12.3-3.155-12.3-6.958 0-.28-.019-.509-.059-.851 1.259 3.518 6.315 6.127 12.357 6.127" style="fill:#461718;fill-rule:nonzero" transform="matrix(-4.69668 0 0 4.69668 698.593 -572.514)"/><path d="M127 188.113c5.875 0 10.961-2.816 11.998-5.953-.013.355-.064.654-.064.929 0 3.695-5.367 6.66-11.932 6.66s-11.953-3.067-11.953-6.762c0-.273-.018-.496-.057-.827 1.224 3.419 6.137 5.953 12.008 5.953" style="fill:#461718;fill-rule:nonzero" transform="matrix(-4.69668 0 0 4.69668 698.593 -572.514)"/><path d="M135.625 173.196c-.339-.105-.98.366-.719.778.283.445 1.014.01.971-.448-.014-.151-.098-.283-.252-.33M123.823 172.498c-.34-.104-.98.366-.719.778.283.445 1.014.011.971-.447-.014-.151-.098-.284-.252-.331" style="fill:#c73956;fill-rule:nonzero" transform="matrix(-4.69668 0 0 4.69668 698.593 -572.514)"/><path d="M122.653 171.201a.335.335 0 0 1-.343-.286c-.027-.138.013-.486.106-.594.132-.154.276-.218.407-.218.349 0 .602.455.283.85-.138.17-.306.248-.453.248M124.657 175.188a.34.34 0 0 1-.343-.286c-.026-.138.014-.486.106-.594.133-.154.277-.218.407-.218.349 0 .602.455.283.849-.138.171-.306.249-.453.249M122.299 177.651c-.296 0-.49-.217-.405-.474.044-.135.247-.42.379-.469a.7.7 0 0 1 .243-.048c.505 0 .621.704.057.934a.7.7 0 0 1-.274.057M127.394 176.986a.34.34 0 0 1-.344-.285l-.005-.094a.6.6 0 0 1-.396.094c-.677-.063-.714-.937-.025-.937l.055.002c.138.009.402.212.49.33.13-.145.269-.205.396-.205.348 0 .599.453.281.847-.137.17-.305.248-.452.248M132.338 172.033c-.298-.391-.047-.832.296-.832.131 0 .275.063.407.217.048.056.082.174.1.294a5 5 0 0 0-.766.305z" style="fill:#7c1229;fill-rule:nonzero" transform="matrix(-4.69668 0 0 4.69668 698.593 -572.514)"/><path d="M126.55 170.196c.391-.05.718.001 1.02.117 0-.566-.382-1.552-1.075-2.169-.831-.739-1.986-.963-1.986-.963s-.137.489-.123.981a18 18 0 0 0-1.665-.407s.326 1.028.626 1.285c-.835.238-1.199.75-1.199.75s.573.985 1.459 1.262c.2-.247.458-.426.829-.482.298-.046.602-.01.87.101.327-.292.807-.42 1.244-.475" style="fill:#afc442;fill-rule:nonzero" transform="matrix(-4.69668 0 0 4.69668 698.593 -572.514)"/><path d="M123.519 168.29s.493.442 1.135.988c.643.547 1.117 1.112 1.117 1.112l.272-.094s-1.184-1.543-2.524-2.006M124.509 167.181s.375.326 1.028 1.04c.653.713 1.183 1.96 1.183 1.96s.533.016.85.132c.11-.544-.116-1.36-.766-2.023-.65-.662-2.295-1.109-2.295-1.109M122.659 169.72c.036 0 .58-.084 1.197.146s.847.447.847.447-.714-.121-1.022-.218a23 23 0 0 1-1.022-.375" style="fill:#8fa23b;fill-rule:nonzero" transform="matrix(-4.69668 0 0 4.69668 698.593 -572.514)"/><path d="M131.47 174.63c-.39-.05-.718 0-1.02.118 0-.567.382-1.553 1.076-2.17.83-.739 1.985-.964 1.985-.964s.137.491.123.982c1.051-.3 1.665-.408 1.665-.408s-.326 1.029-.626 1.286c.835.238 1.2.75 1.2.75s-.574.984-1.46 1.261a1.27 1.27 0 0 0-.828-.482 1.65 1.65 0 0 0-.871.101c-.326-.291-.807-.418-1.244-.474" style="fill:#afc442;fill-rule:nonzero" transform="matrix(-4.69668 0 0 4.69668 698.593 -572.514)"/><path d="M134.502 172.724s-.493.443-1.136.988c-.642.547-1.116 1.111-1.116 1.111l-.273-.093s1.185-1.543 2.525-2.006M133.511 171.614s-.374.327-1.028 1.041c-.653.713-1.182 1.96-1.182 1.96s-.534.016-.851.133c-.109-.545.117-1.362.767-2.024s2.294-1.11 2.294-1.11M135.362 174.154c-.036 0-.581-.084-1.197.145-.617.23-.847.449-.847.449s.714-.122 1.022-.219a24 24 0 0 0 1.022-.375" style="fill:#8fa23b;fill-rule:nonzero" transform="matrix(-4.69668 0 0 4.69668 698.593 -572.514)"/><path d="M123.037 171.985s-.482.434-.579.739-.08.578-.08.578-.21-.281-.587-.422c-.376-.14-.836-.156-.836-.156s.074.601.283.839c.208.237.758.639.758.639s.349-.214.662-.322l.247-.009c.075-.259.191-.676.212-.862.032-.276-.08-1.024-.08-1.024" style="fill:#afc442;fill-rule:nonzero" transform="matrix(-4.69668 0 0 4.69668 698.593 -572.514)"/><path d="M123.519 172.917c.015-.398-.482-.932-.482-.932s.112.748.08 1.024c-.021.186-.137.603-.212.862.163.024.308.09.308.09s.291-.647.306-1.044" style="fill:#8fa23b;fill-rule:nonzero" transform="matrix(-4.69668 0 0 4.69668 698.593 -572.514)"/><path d="M130.496 169.397s.482.435.578.74.08.578.08.578.211-.281.588-.422c.376-.14.836-.156.836-.156s-.074.601-.283.839c-.209.237-.758.638-.758.638s-.349-.214-.664-.321l-.246-.009c-.075-.259-.19-.677-.211-.862-.034-.276.08-1.025.08-1.025" style="fill:#afc442;fill-rule:nonzero" transform="matrix(-4.69668 0 0 4.69668 698.593 -572.514)"/><path d="M130.014 170.329c-.016-.398.482-.932.482-.932s-.114.749-.08 1.025c.021.185.136.603.211.862-.163.024-.308.09-.308.09s-.29-.646-.305-1.045" style="fill:#8fa23b;fill-rule:nonzero" transform="matrix(-4.69668 0 0 4.69668 698.593 -572.514)"/><path d="M128.078 175.685s.483.435.579.739c.096.305.08.578.08.578s.211-.281.588-.421c.376-.141.835-.157.835-.157s-.073.601-.282.839c-.209.237-.759.639-.759.639s-.348-.214-.662-.321l-.247-.01c-.074-.258-.19-.676-.211-.862-.033-.276.079-1.024.079-1.024" style="fill:#afc442;fill-rule:nonzero" transform="matrix(-4.69668 0 0 4.69668 698.593 -572.514)"/><path d="M127.597 176.617c-.015-.398.481-.932.481-.932s-.112.748-.079 1.024c.021.186.137.604.211.862-.163.024-.308.09-.308.09s-.29-.646-.305-1.044" style="fill:#8fa23b;fill-rule:nonzero" transform="matrix(-4.69668 0 0 4.69668 698.593 -572.514)"/><path d="M118.792 173.466a.335.335 0 0 1-.344-.285c-.026-.139.013-.487.106-.595.133-.154.277-.217.407-.217.349 0 .602.454.283.849-.138.17-.306.248-.452.248M121.271 176.175c-.146 0-.314-.077-.452-.248-.32-.394-.066-.849.283-.849.13 0 .274.064.407.218.092.108.132.455.106.594a.336.336 0 0 1-.344.285M118.86 176.132a.67.67 0 0 1-.362-.117c-.479-.31-.295-.916.137-.916.096 0 .205.03.322.101.121.074.267.392.286.532.03.235-.144.4-.383.4M129.459 173.934c-.146 0-.314-.077-.452-.247-.319-.395-.067-.85.282-.85.131 0 .274.064.408.218.092.108.133.455.105.594a.334.334 0 0 1-.343.285M125.234 172.837c-.147 0-.315-.077-.452-.248-.319-.394-.067-.846.281-.846.127 0 .266.059.396.204.088-.117.352-.321.491-.329q.028-.002.054-.002c.689 0 .652.873-.024.936l-.066.003a.6.6 0 0 1-.331-.097l-.005.094a.336.336 0 0 1-.344.285M132.092 177.404c-.146 0-.314-.078-.452-.248-.319-.394-.067-.846.281-.846.127 0 .267.06.396.204.089-.118.352-.321.491-.329q.028-.002.055-.002c.689 0 .652.873-.025.936l-.065.003a.6.6 0 0 1-.332-.097l-.005.094a.335.335 0 0 1-.344.285" style="fill:#7c1229;fill-rule:nonzero" transform="matrix(-4.69668 0 0 4.69668 698.593 -572.514)"/><path d="M122.998 174.457c-.339-.104-.98.366-.719.778.283.445 1.014.011.971-.447-.014-.151-.098-.284-.252-.331M132.985 174.721c-.339-.104-.98.366-.718.778.282.445 1.014.01.97-.447-.014-.151-.098-.284-.252-.331M127.067 170.024c-.34-.104-.981.366-.719.778.283.445 1.014.011.971-.447-.014-.151-.099-.284-.252-.331M121.785 170.667c-.34-.104-.98.366-.719.778.283.445 1.014.01.971-.447-.014-.151-.099-.284-.252-.331M128.878 169.01c.34-.104.98.366.719.778-.284.445-1.015.011-.971-.447.015-.151.099-.283.252-.331M124.331 177.503c.339-.104.98.367.718.778-.282.446-1.013.011-.97-.447.014-.151.098-.284.252-.331M120.158 173.707c-.446-.403-.754.11-.695.562.037.286.395.482.554.432.365-.118.481-.689.141-.994M129.326 171.469c-.445-.403-.753.111-.694.562.037.287.394.483.553.432.365-.117.481-.689.141-.994M126.084 176.744c-.445-.403-.753.11-.694.562.037.286.395.482.553.431.366-.116.481-.688.141-.993" style="fill:#c73956;fill-rule:nonzero" transform="matrix(-4.69668 0 0 4.69668 698.593 -572.514)"/><path d="M121.005 171.033c-.446-.402-.754.111-.695.563.037.286.395.482.553.431.366-.117.481-.688.142-.994M130.66 174.503c-.446-.401-.754.111-.695.563.037.287.395.482.553.432.366-.118.48-.688.142-.995" style="fill:#c73956;fill-rule:nonzero" transform="matrix(-4.69668 0 0 4.69668 698.593 -572.514)"/><path d="M131.729 187.178s-1.072-.095-1.772-.401c-.694-.304-.506-.377.437-.659.942-.283 2.469.051 4.476-.746.525-.208 4.868-5.306 5.905-6.164.959.859 2.296 2.488 3.009 3.924-1.414.764-5.796 4.192-6.227 4.368-1.057.432-4.116 3.132-6.048 3.272-2.72.197-3.039-.876-2.613-1.592.702-1.186 2.833-2.002 2.833-2.002" style="fill:#fbc3b3;fill-rule:nonzero" transform="matrix(-4.69668 0 0 4.69668 698.593 -572.514)"/><path d="M140.578 177.324c1.003-1.242 5.56 4.488 4.762 5.268s-1.906 2.1-3.007 2.583c-.699.306-1.951-1.768-3.103-3.268-1.151-1.501-.922-1.51-.311-2.303.612-.792 1.247-1.77 1.659-2.28" style="fill:#c73956;fill-rule:nonzero" transform="matrix(-4.69668 0 0 4.69668 698.593 -572.514)"/><path d="M114.634 176.507s1.853 1.633 1.373 3.77c-.318 1.418-2.149.097-2.109-1.758.04-1.856.736-2.012.736-2.012" style="fill:#fbc3b3;fill-rule:nonzero" transform="matrix(-4.69668 0 0 4.69668 698.593 -572.514)"/></svg>